<?xml version="1.0" encoding="UTF-8"?>
<svg width="2150px" height="2150px" viewBox="0 0 2150 2150" version="1.1" xmlns="http://www.w3.org/2000/svg" xmlns:xlink="http://www.w3.org/1999/xlink">
    <!-- Generator: Sketch 60.1 (88133) - https://sketch.com -->
    <title>vectorstock_13700025</title>
    <desc>Created with Sketch.</desc>
    <defs>
        <polygon id="path-1" points="0.06 0.218628665 2112.14868 0.218628665 2112.14868 1818.67 0.06 1818.67"></polygon>
        <polygon id="path-3" points="0.06 0.0535268328 2084.3759 0.0535268328 2084.3759 564.699622 0.06 564.699622"></polygon>
        <polygon id="path-5" points="0.06 0.39 1238.66532 0.39 1238.66532 706 0.06 706"></polygon>
    </defs>
    <g id="Page-1" stroke="none" stroke-width="1" fill="none" fill-rule="evenodd" opacity="0.578908404">
        <g id="Artboard">
            <g id="vectorstock_13700025">
                <path d="M2099.06,1869.41 C2096.04,1876.13 2099.04,1884.02 2105.76,1887.03 C2112.48,1890.05 2120.37,1887.05 2123.38,1880.33 C2128.91,1868.02 2138.57,1858.83 2150,1853.65 L2150,1825.33 C2128.14,1831.62 2109.08,1847.09 2099.06,1869.41" id="Fill-3" fill="#1B1A19"></path>
                <path d="M2125.8,1408.1 C2121.71,1401.98 2113.43,1400.32 2107.31,1404.41 C2101.18,1408.49 2099.53,1416.77 2103.62,1422.9 L2140.6,1478.35 C2142.83,1481.69 2146.31,1483.69 2150,1484.17 L2150,1444.39 L2125.8,1408.1" id="Fill-4" fill="#1B1A19"></path>
                <path d="M2139.08,917.679 C2132.1,915.343 2124.54,919.109 2122.21,926.092 L2101.06,989.306 C2098.72,996.289 2102.49,1003.84 2109.47,1006.18 C2116.45,1008.51 2124.01,1004.75 2126.34,997.766 L2147.49,934.552 C2149.83,927.569 2146.06,920.015 2139.08,917.679" id="Fill-5" fill="#1B1A19"></path>
                <path d="M2122.03,60.659 C2118.54,60.382 2114.99,61.53 2112.33,63.806 C2109.66,66.082 2107.97,69.4 2107.69,72.896 C2107.42,76.392 2108.56,79.934 2110.84,82.601 C2113.12,85.268 2116.43,86.958 2119.93,87.234 C2123.43,87.512 2126.97,86.363 2129.63,84.087 C2132.3,81.811 2133.99,78.493 2134.27,74.997 C2134.54,71.501 2133.4,67.958 2131.12,65.292 C2128.84,62.625 2125.53,60.935 2122.03,60.659" id="Fill-6" fill="#1B1A19"></path>
                <g id="Group-12" transform="translate(0.000000, 249.000000)">
                    <mask id="mask-2" fill="white">
                        <use xlink:href="#path-1"></use>
                    </mask>
                    <g id="Clip-8"></g>
                    <path d="M2101.22,264.859 C2097.78,264.226 2094.13,265.007 2091.25,266.999 C2088.36,268.991 2086.34,272.118 2085.71,275.568 C2085.08,279.018 2085.86,282.659 2087.85,285.544 C2089.84,288.43 2092.97,290.45 2096.42,291.081 C2099.87,291.713 2103.51,290.934 2106.4,288.941 C2109.28,286.95 2111.3,283.821 2111.93,280.372 C2112.57,276.923 2111.79,273.282 2109.79,270.396 C2107.8,267.511 2104.67,265.491 2101.22,264.859" id="Fill-7" fill="#1B1A19" mask="url(#mask-2)"></path>
                    <path d="M63.027,924.05 C59.668,917.5 51.633,914.91 45.082,918.27 L0,941.38 L0,971.34 L57.246,942 C63.797,938.64 66.387,930.6 63.027,924.05" id="Fill-9" fill="#1B1A19" mask="url(#mask-2)"></path>
                    <path d="M43.93,0.708 C36.835,-1.262 29.487,2.893 27.518,9.987 L0.771,106.33 C-1.198,113.424 2.957,120.772 10.051,122.742 C17.145,124.711 24.494,120.557 26.463,113.462 L53.209,17.119 C55.178,10.025 51.024,2.677 43.93,0.708" id="Fill-10" fill="#1B1A19" mask="url(#mask-2)"></path>
                    <path d="M8.895,1780.97 C6.164,1779.17 3.014,1778.51 0,1778.87 L0,1818.67 L12.682,1799.44 C16.737,1793.29 15.041,1785.03 8.895,1780.97" id="Fill-11" fill="#1B1A19" mask="url(#mask-2)"></path>
                </g>
                <path d="M51.876,1648.59 C48.939,1646.68 45.279,1645.99 41.847,1646.72 C38.416,1647.44 35.342,1649.54 33.427,1652.48 C31.512,1655.42 30.829,1659.08 31.551,1662.51 C32.274,1665.94 34.376,1669.01 37.313,1670.93 C40.25,1672.84 43.91,1673.53 47.342,1672.8 C50.774,1672.08 53.847,1669.98 55.762,1667.04 C57.677,1664.1 58.361,1660.44 57.638,1657.01 C56.915,1653.58 54.813,1650.51 51.876,1648.59" id="Fill-13" fill="#1B1A19"></path>
                <path d="M1183.44,64.536 C1189.71,68.393 1197.92,66.437 1201.78,60.166 L1236.7,3.388 C1237.37,2.307 1237.85,1.165 1238.17,0 L1207.48,0 L1179.07,46.196 C1175.21,52.467 1177.17,60.679 1183.44,64.536" id="Fill-14" fill="#1B1A19"></path>
                <path d="M2046.38,1.783 C2046.58,1.192 2046.72,0.596 2046.83,0 L2012.63,0 C2017.32,4.4 2022.99,7.904 2029.46,10.107 C2036.43,12.479 2044,8.753 2046.38,1.783" id="Fill-15" fill="#1B1A19"></path>
                <path d="M1652.21,51.182 C1659.54,50.458 1664.89,43.931 1664.16,36.604 C1663.44,29.276 1656.91,23.924 1649.59,24.648 C1638.61,25.733 1628.8,17.688 1627.72,6.715 C1627.49,4.417 1627.09,2.177 1626.55,0 L1597.77,0 C1599.62,2.689 1600.84,5.866 1601.18,9.338 C1603.71,34.942 1626.61,53.713 1652.21,51.182" id="Fill-16" fill="#1B1A19"></path>
                <path d="M313.822,52.291 C321.163,51.725 326.655,45.314 326.089,37.973 C325.522,30.632 319.111,25.14 311.771,25.707 C300.776,26.555 291.143,18.301 290.294,7.307 C290.101,4.805 289.708,2.367 289.141,0 L260.533,0 C262.306,2.717 263.443,5.902 263.71,9.358 C265.689,35.011 288.17,54.271 313.822,52.291" id="Fill-17" fill="#1B1A19"></path>
                <path d="M753.761,46.024 C750.909,43.984 747.282,43.14 743.823,43.713 C740.364,44.287 737.205,46.257 735.165,49.109 C733.125,51.962 732.28,55.588 732.854,59.047 C733.427,62.506 735.398,65.666 738.25,67.706 C741.102,69.747 744.729,70.591 748.188,70.017 C751.646,69.443 754.806,67.473 756.847,64.621 C758.888,61.769 759.731,58.142 759.157,54.684 C758.583,51.224 756.614,48.065 753.761,46.024" id="Fill-18" fill="#1B1A19"></path>
                <path d="M553.438,2120.4 C522.446,2106.76 486.301,2120.04 471.315,2150 L504.759,2150 C515.101,2141.58 529.676,2139.07 542.699,2144.8 C545.807,2146.17 548.602,2147.95 551.111,2150 L584.518,2150 C578.144,2137.25 567.469,2126.57 553.438,2120.4" id="Fill-19" fill="#1B1A19"></path>
                <path d="M125.649,2111.24 C117.25,2086.92 90.631,2073.97 66.312,2082.37 C59.353,2084.77 55.66,2092.36 58.063,2099.32 C60.467,2106.28 68.058,2109.97 75.017,2107.57 C85.44,2103.97 96.847,2109.52 100.447,2119.94 C102.954,2127.2 92.652,2138.21 82.69,2148.87 C82.339,2149.24 81.985,2149.62 81.631,2150 L116.878,2150 C125.164,2138.67 130.672,2125.78 125.649,2111.24" id="Fill-20" fill="#1B1A19"></path>
                <path d="M1851.17,2142.1 C1875.77,2134.56 1889.64,2108.41 1882.09,2083.81 C1879.93,2076.77 1872.48,2072.82 1865.44,2074.98 C1858.4,2077.13 1854.44,2084.59 1856.6,2091.63 C1859.83,2102.17 1853.89,2113.38 1843.35,2116.61 C1827.14,2121.59 1815.59,2134.64 1811.76,2150 L1840.5,2150 C1842.97,2146.36 1846.64,2143.49 1851.17,2142.1" id="Fill-21" fill="#1B1A19"></path>
                <path d="M980.93,2089.13 C977.661,2087.86 973.938,2087.94 970.731,2089.36 C967.523,2090.78 964.953,2093.47 963.685,2096.74 C962.417,2100.01 962.502,2103.73 963.917,2106.94 C965.333,2110.15 968.026,2112.72 971.297,2113.99 C974.567,2115.25 978.29,2115.17 981.497,2113.75 C984.705,2112.34 987.275,2109.64 988.542,2106.37 C989.81,2103.1 989.726,2099.38 988.311,2096.17 C986.895,2092.97 984.2,2090.39 980.93,2089.13" id="Fill-22" fill="#1B1A19"></path>
                <path d="M1423.84,2100.69 C1420.33,2100.62 1416.86,2101.98 1414.33,2104.41 C1411.81,2106.83 1410.31,2110.25 1410.24,2113.75 C1410.17,2117.26 1411.53,2120.73 1413.96,2123.26 C1416.38,2125.79 1419.8,2127.28 1423.3,2127.35 C1426.81,2127.42 1430.28,2126.07 1432.8,2123.64 C1435.33,2121.21 1436.83,2117.8 1436.9,2114.29 C1436.97,2110.78 1435.61,2107.32 1433.19,2104.79 C1430.76,2102.26 1427.35,2100.76 1423.84,2100.69" id="Fill-23" fill="#1B1A19"></path>
                <path d="M673.533,341.234 C668.414,335.942 659.974,335.801 654.682,340.919 L616.349,377.991 L579.277,339.658 C574.159,334.366 565.719,334.225 560.426,339.343 C555.134,344.461 554.993,352.901 560.111,358.194 L597.183,396.527 L558.85,433.598 C553.558,438.716 553.417,447.157 558.535,452.449 C563.654,457.742 572.094,457.883 577.386,452.765 L615.719,415.693 L652.791,454.025 C657.909,459.318 666.349,459.459 671.642,454.341 C676.934,449.223 677.075,440.782 671.957,435.49 L634.885,397.157 L673.218,360.085 C678.51,354.967 678.651,346.527 673.533,341.234" id="Fill-24" fill="#1B1A19"></path>
                <path d="M976.005,869.154 L936.132,833.745 L971.541,793.871 C976.429,788.366 975.93,779.94 970.425,775.051 C964.919,770.162 956.493,770.662 951.604,776.167 L916.195,816.04 L876.321,780.631 C870.816,775.742 862.39,776.242 857.501,781.747 C852.612,787.252 853.111,795.679 858.617,800.568 L898.491,835.977 L863.082,875.851 C858.193,881.355 858.692,889.782 864.198,894.671 C869.703,899.56 878.129,899.06 883.018,893.555 L918.427,853.682 L958.301,889.09 C963.806,893.979 972.233,893.479 977.122,887.975 C982.01,882.469 981.511,874.043 976.005,869.154" id="Fill-25" fill="#1B1A19"></path>
                <path d="M1265.21,1259.69 L1216.71,1281.85 L1194.55,1233.35 C1191.49,1226.65 1183.58,1223.7 1176.88,1226.76 C1170.19,1229.82 1167.24,1237.73 1170.3,1244.42 L1192.46,1292.93 L1143.95,1315.09 C1137.25,1318.15 1134.3,1326.06 1137.36,1332.75 C1140.42,1339.45 1148.33,1342.4 1155.03,1339.34 L1203.53,1317.18 L1225.69,1365.69 C1228.75,1372.38 1236.66,1375.33 1243.36,1372.27 C1250.05,1369.21 1253,1361.3 1249.94,1354.61 L1227.79,1306.1 L1276.29,1283.94 C1282.99,1280.88 1285.94,1272.98 1282.88,1266.28 C1279.82,1259.58 1271.91,1256.63 1265.21,1259.69" id="Fill-26" fill="#1B1A19"></path>
                <path d="M2012.99,84.636 L1961.47,98.411 L1947.7,46.895 C1945.8,39.782 1938.49,35.558 1931.38,37.46 C1924.26,39.362 1920.04,46.669 1921.94,53.783 L1935.72,105.299 L1884.2,119.075 C1877.09,120.977 1872.86,128.284 1874.76,135.397 C1876.67,142.511 1883.98,146.734 1891.09,144.833 L1942.6,131.057 L1956.38,182.574 C1958.28,189.687 1965.59,193.911 1972.7,192.009 C1979.82,190.107 1984.04,182.799 1982.14,175.686 L1968.36,124.169 L2019.88,110.394 C2026.99,108.492 2031.22,101.184 2029.31,94.071 C2027.41,86.958 2020.1,82.734 2012.99,84.636" id="Fill-27" fill="#1B1A19"></path>
                <path d="M1616.67,1962.97 L1653,1923.93 C1658.01,1918.54 1657.71,1910.1 1652.32,1905.09 C1646.93,1900.07 1638.49,1900.38 1633.48,1905.77 L1597.15,1944.81 L1558.11,1908.48 C1552.72,1903.47 1544.28,1903.77 1539.27,1909.16 C1534.25,1914.55 1534.56,1922.99 1539.95,1928 L1578.99,1964.33 L1542.66,2003.37 C1537.65,2008.76 1537.95,2017.2 1543.34,2022.21 C1548.73,2027.23 1557.17,2026.92 1562.18,2021.53 L1598.51,1982.49 L1637.55,2018.82 C1642.94,2023.83 1651.37,2023.53 1656.39,2018.14 C1661.41,2012.75 1661.1,2004.31 1655.71,1999.3 L1616.67,1962.97" id="Fill-28" fill="#1B1A19"></path>
                <path d="M817.057,558.412 L775.131,591.366 L742.177,549.44 C737.627,543.651 729.246,542.647 723.458,547.197 C717.669,551.747 716.665,560.128 721.214,565.917 L754.168,607.843 L712.243,640.796 C706.455,645.346 705.451,653.728 710,659.517 C714.551,665.305 722.932,666.309 728.721,661.759 L770.646,628.805 L803.6,670.73 C808.15,676.519 816.531,677.523 822.319,672.973 C828.108,668.423 829.112,660.042 824.563,654.253 L791.608,612.328 L833.534,579.374 C839.322,574.824 840.327,566.443 835.776,560.654 C831.226,554.865 822.845,553.862 817.057,558.412" id="Fill-29" fill="#1B1A19"></path>
                <path d="M230.373,1159.26 L181.843,1181.36 L159.741,1132.83 C156.689,1126.13 148.783,1123.17 142.083,1126.23 C135.382,1129.28 132.424,1137.18 135.476,1143.88 L157.578,1192.42 L109.048,1214.52 C102.347,1217.57 99.39,1225.48 102.441,1232.18 C105.493,1238.88 113.398,1241.83 120.099,1238.78 L168.629,1216.68 L190.732,1265.21 C193.783,1271.91 201.689,1274.87 208.39,1271.82 C215.091,1268.77 218.048,1260.86 214.997,1254.16 L192.895,1205.63 L241.424,1183.53 C248.125,1180.47 251.083,1172.57 248.031,1165.87 C244.98,1159.17 237.074,1156.21 230.373,1159.26" id="Fill-30" fill="#1B1A19"></path>
                <path d="M1697.81,290.638 L1644.55,287.966 L1647.23,234.707 C1647.6,227.354 1641.93,221.093 1634.58,220.724 C1627.23,220.355 1620.97,226.018 1620.6,233.371 L1617.92,286.63 L1564.67,283.958 C1557.31,283.589 1551.05,289.252 1550.68,296.605 C1550.31,303.958 1555.98,310.219 1563.33,310.588 L1616.59,313.26 L1613.92,366.519 C1613.55,373.872 1619.21,380.133 1626.56,380.502 C1633.92,380.871 1640.18,375.208 1640.55,367.855 L1643.22,314.596 L1696.48,317.268 C1703.83,317.637 1710.09,311.974 1710.46,304.621 C1710.83,297.268 1705.17,291.007 1697.81,290.638" id="Fill-31" fill="#1B1A19"></path>
                <path d="M438.477,278.802 L386.563,290.996 L374.369,239.083 C372.686,231.915 365.509,227.469 358.342,229.153 C351.175,230.836 346.729,238.012 348.413,245.18 L360.607,297.093 L308.693,309.287 C301.526,310.971 297.08,318.146 298.764,325.314 C300.447,332.482 307.624,336.928 314.791,335.244 L366.704,323.05 L378.898,374.963 C380.582,382.131 387.758,386.576 394.925,384.893 C402.092,383.209 406.539,376.034 404.855,368.866 L392.661,316.953 L444.574,304.758 C451.741,303.075 456.188,295.899 454.504,288.731 C452.82,281.563 445.644,277.118 438.477,278.802" id="Fill-32" fill="#1B1A19"></path>
                <path d="M1840.72,1651.47 L1791.52,1630.92 L1812.08,1581.71 C1814.92,1574.92 1811.71,1567.11 1804.91,1564.27 C1798.12,1561.43 1790.31,1564.64 1787.47,1571.43 L1766.92,1620.64 L1717.71,1600.08 C1710.92,1597.25 1703.11,1600.45 1700.27,1607.25 C1697.43,1614.04 1700.64,1621.85 1707.43,1624.69 L1756.64,1645.24 L1736.08,1694.45 C1733.24,1701.24 1736.45,1709.05 1743.24,1711.89 C1750.04,1714.73 1757.85,1711.52 1760.68,1704.73 L1781.24,1655.52 L1830.45,1676.08 C1837.24,1678.92 1845.05,1675.71 1847.89,1668.92 C1850.72,1662.12 1847.52,1654.31 1840.72,1651.47" id="Fill-33" fill="#1B1A19"></path>
                <path d="M1405.4,88.011 L1352.47,81.531 L1358.95,28.6 C1359.84,21.292 1354.64,14.642 1347.33,13.747 C1340.03,12.853 1333.38,18.052 1332.48,25.36 L1326,78.291 L1273.07,71.812 C1265.76,70.917 1259.11,76.117 1258.22,83.424 C1257.32,90.732 1262.52,97.382 1269.83,98.277 L1322.76,104.757 L1316.28,157.688 C1315.39,164.996 1320.59,171.646 1327.9,172.541 C1335.2,173.435 1341.85,168.235 1342.75,160.928 L1349.23,107.997 L1402.16,114.476 C1409.47,115.371 1416.12,110.171 1417.01,102.863 C1417.91,95.556 1412.71,88.905 1405.4,88.011" id="Fill-34" fill="#1B1A19"></path>
                <path d="M1869.17,934.824 L1817.15,923.087 L1828.89,871.069 C1830.51,863.887 1826,856.75 1818.82,855.13 C1811.64,853.51 1804.5,858.018 1802.88,865.201 L1791.14,917.219 L1739.13,905.482 C1731.94,903.862 1724.81,908.371 1723.19,915.553 C1721.57,922.735 1726.07,929.872 1733.26,931.492 L1785.28,943.229 L1773.54,995.248 C1771.92,1002.43 1776.43,1009.57 1783.61,1011.19 C1790.79,1012.81 1797.93,1008.3 1799.55,1001.12 L1811.28,949.097 L1863.3,960.833 C1870.49,962.454 1877.62,957.946 1879.24,950.763 C1880.86,943.581 1876.35,936.445 1869.17,934.824" id="Fill-35" fill="#1B1A19"></path>
                <path d="M1116.28,77.413 L1063.86,87.191 L1054.08,34.77 C1052.73,27.532 1045.77,22.758 1038.53,24.108 C1031.29,25.459 1026.52,32.421 1027.87,39.659 L1037.65,92.081 L985.226,101.86 C977.988,103.21 973.215,110.173 974.565,117.41 C975.916,124.647 982.878,129.421 990.116,128.071 L1042.54,118.292 L1052.32,170.714 C1053.67,177.952 1060.63,182.725 1067.87,181.375 C1075.1,180.024 1079.88,173.062 1078.53,165.825 L1068.75,113.402 L1121.17,103.624 C1128.41,102.273 1133.18,95.311 1131.83,88.073 C1130.48,80.836 1123.52,76.062 1116.28,77.413" id="Fill-36" fill="#1B1A19"></path>
                <path d="M1077.3,1484.17 C1071.81,1479.26 1063.39,1479.73 1058.48,1485.22 C1038.87,1507.14 1005.09,1509.02 983.179,1489.42 C977.691,1484.51 969.263,1484.98 964.354,1490.46 C959.445,1495.95 959.916,1504.38 965.403,1509.29 C998.278,1538.69 1048.95,1535.87 1078.35,1503 C1083.26,1497.51 1082.79,1489.08 1077.3,1484.17" id="Fill-37" fill="#1B1A19"></path>
                <path d="M44.687,1313.99 C37.495,1312.41 30.386,1316.97 28.808,1324.16 C27.231,1331.35 31.782,1338.46 38.974,1340.04 C67.695,1346.33 85.936,1374.83 79.636,1403.55 C78.059,1410.74 82.61,1417.85 89.802,1419.43 C96.994,1421 104.103,1416.45 105.68,1409.26 C115.13,1366.18 87.769,1323.44 44.687,1313.99" id="Fill-38" fill="#1B1A19"></path>
                <path d="M1948.71,420.204 C1941.47,418.897 1934.53,423.712 1933.23,430.958 C1931.92,438.203 1936.73,445.137 1943.98,446.443 C1972.92,451.661 1992.22,479.449 1987,508.386 C1985.69,515.631 1990.51,522.565 1997.75,523.872 C2005,525.178 2011.93,520.363 2013.24,513.117 C2021.07,469.711 1992.12,428.03 1948.71,420.204" id="Fill-39" fill="#1B1A19"></path>
                <path d="M1637.06,1768.31 C1615.44,1788.24 1581.63,1786.86 1561.71,1765.24 C1556.72,1759.83 1548.28,1759.48 1542.87,1764.47 C1537.45,1769.46 1537.11,1777.9 1542.1,1783.31 C1571.99,1815.74 1622.7,1817.81 1655.13,1787.92 C1660.54,1782.93 1660.89,1774.49 1655.9,1769.08 C1650.91,1763.66 1642.47,1763.32 1637.06,1768.31" id="Fill-40" fill="#1B1A19"></path>
                <path d="M2000.19,1482.4 C1956.85,1474.18 1914.91,1502.74 1906.68,1546.07 C1905.31,1553.3 1910.06,1560.28 1917.29,1561.65 C1924.53,1563.03 1931.5,1558.28 1932.88,1551.04 C1938.36,1522.15 1966.33,1503.11 1995.21,1508.6 C2002.45,1509.97 2009.42,1505.22 2010.8,1497.99 C2012.17,1490.75 2007.42,1483.77 2000.19,1482.4" id="Fill-41" fill="#1B1A19"></path>
                <path d="M1902.82,753.134 C1896.07,750.196 1888.22,753.289 1885.28,760.041 C1882.34,766.792 1885.44,774.646 1892.19,777.583 C1919.15,789.313 1931.54,820.793 1919.81,847.756 C1916.88,854.507 1919.97,862.362 1926.72,865.299 C1933.47,868.236 1941.33,865.144 1944.26,858.392 C1961.86,817.947 1943.27,770.729 1902.82,753.134" id="Fill-42" fill="#1B1A19"></path>
                <path d="M783.904,822.361 C759.563,805.863 753.183,772.639 769.68,748.299 C773.811,742.205 772.219,733.915 766.125,729.784 C760.03,725.653 751.74,727.245 747.609,733.34 C722.863,769.85 732.434,819.686 768.944,844.432 C775.039,848.563 783.329,846.97 787.459,840.876 C791.59,834.782 789.999,826.492 783.904,822.361" id="Fill-43" fill="#1B1A19"></path>
                <path d="M286.581,133.998 C244.411,146.923 220.618,191.746 233.543,233.917 C235.701,240.956 243.158,244.914 250.197,242.756 C257.236,240.599 261.194,233.143 259.036,226.103 C250.419,197.989 266.281,168.107 294.394,159.491 C301.433,157.333 305.392,149.877 303.234,142.837 C301.076,135.798 293.62,131.84 286.581,133.998" id="Fill-44" fill="#1B1A19"></path>
                <path d="M1782.49,2009.52 C1739.7,2020.23 1713.61,2063.76 1724.32,2106.54 C1726.11,2113.68 1733.35,2118.03 1740.49,2116.24 C1747.63,2114.45 1751.97,2107.21 1750.19,2100.07 C1743.04,2071.54 1760.44,2042.53 1788.96,2035.39 C1796.11,2033.6 1800.45,2026.36 1798.66,2019.22 C1796.87,2012.07 1789.63,2007.73 1782.49,2009.52" id="Fill-45" fill="#1B1A19"></path>
                <path d="M852.308,2031.84919 C844.946,2031.77 838.907,2037.66 838.82,2045.03 C838.475,2074.43 814.272,2098.07 784.871,2097.72 C777.509,2097.64 771.47,2103.53 771.384,2110.9 C771.297,2118.26 777.196,2124.3 784.558,2124.38 C828.661,2124.9 864.963,2089.44 865.482929,2045.34 C865.568,2037.98 859.669,2031.94 852.308,2031.84919" id="Fill-46" fill="#1B1A19"></path>
                <path d="M907.052,9.538 C869.984,33.44 859.273,83.043 883.176,120.111 C887.166,126.299 895.417,128.081 901.604,124.091 C907.792,120.101 909.574,111.85 905.584,105.662 C889.649,80.95 896.79,47.881 921.501,31.946 C927.689,27.956 929.471,19.705 925.48,13.517 C921.49,7.329 913.239,5.548 907.052,9.538" id="Fill-47" fill="#1B1A19"></path>
                <path d="M1593.12,898.124 C1549.15,894.682 1510.57,927.656 1507.13,971.628 C1506.56,978.969 1512.04,985.385 1519.38,985.959 C1526.72,986.534 1533.14,981.049 1533.71,973.708 C1536.01,944.394 1561.72,922.411 1591.04,924.705 C1598.38,925.279 1604.79,919.795 1605.37,912.454 C1605.94,905.114 1600.46,898.698 1593.12,898.124" id="Fill-48" fill="#1B1A19"></path>
                <path d="M515.193,699.962 C485.802,700.85 461.168,677.661 460.28,648.271 C460.058,640.912 453.912,635.125 446.552,635.348 C439.192,635.571 433.407,641.717 433.629,649.076 C434.962,693.163 471.913,727.945 515.999,726.613 C523.358,726.391 529.144,720.244 528.922,712.885 C528.699,705.525 522.553,699.739 515.193,699.962" id="Fill-49" fill="#1B1A19"></path>
                <path d="M1763.64,1336.76 C1756.66,1334.42 1749.1,1338.18 1746.76,1345.16 C1737.41,1373.03 1707.12,1388.11 1679.24,1378.75 C1672.26,1376.41 1664.7,1380.17 1662.36,1387.15 C1660.02,1394.13 1663.78,1401.69 1670.76,1404.03 C1712.58,1418.06 1758.01,1395.45 1772.04,1353.64 C1774.38,1346.66 1770.62,1339.1 1763.64,1336.76" id="Fill-50" fill="#1B1A19"></path>
                <path d="M68.399,1724.03 C61.482,1726.55 57.92,1734.21 60.443,1741.12 C62.966,1748.04 70.619,1751.6 77.536,1749.08 C105.16,1739 135.831,1753.28 145.907,1780.91 C148.43,1787.82 156.083,1791.38 163,1788.86 C169.917,1786.34 173.479,1778.69 170.956,1771.77 C155.842,1730.33 109.835,1708.92 68.399,1724.03" id="Fill-51" fill="#1B1A19"></path>
                <path d="M1140.5,1735.2 C1134.35,1731.15 1126.08,1732.86 1122.04,1739.01 C1117.99,1745.16 1119.7,1753.43 1125.85,1757.47 C1150.42,1773.63 1157.26,1806.76 1141.11,1831.33 C1137.07,1837.48 1138.77,1845.75 1144.93,1849.79 C1151.08,1853.84 1159.34,1852.13 1163.39,1845.98 C1187.62,1809.12 1177.35,1759.43 1140.5,1735.2" id="Fill-52" fill="#1B1A19"></path>
                <path d="M1151.08,377.927 C1145.17,373.536 1136.82,374.767 1132.43,380.677 C1114.89,404.279 1081.42,409.212 1057.82,391.674 C1051.91,387.283 1043.56,388.514 1039.17,394.424 C1034.78,400.334 1036.01,408.685 1041.92,413.076 C1077.32,439.382 1127.53,431.982 1153.83,396.58 C1158.23,390.669 1156.99,382.318 1151.08,377.927" id="Fill-53" fill="#1B1A19"></path>
                <path d="M706.586,1612.7 C662.519,1610.87 625.173,1645.23 623.338,1689.3 C623.032,1696.65 628.748,1702.86 636.104,1703.17 C643.459,1703.48 649.672,1697.76 649.979,1690.41 C651.202,1661.03 676.099,1638.12 705.477,1639.34 C712.833,1639.65 719.045,1633.94 719.352,1626.58 C719.658,1619.22 713.942,1613.01 706.586,1612.7" id="Fill-54" fill="#1B1A19"></path>
                <g id="Group-58" transform="translate(0.000000, 1290.000000)">
                    <mask id="mask-4" fill="white">
                        <use xlink:href="#path-3"></use>
                    </mask>
                    <g id="Clip-56"></g>
                    <path d="M2069.89,0.09 C2062.55,0.62 2057.03,7.01 2057.57,14.35 C2059.71,43.68 2037.6,69.28 2008.27,71.42 C2000.93,71.96 1995.41,78.35 1995.95,85.69 C1996.48,93.04 2002.87,98.55 2010.21,98.02 C2054.2,94.8 2087.38,56.4 2084.16,12.41 C2083.62,5.07 2077.24,-0.45 2069.89,0.09" id="Fill-55" fill="#1B1A19" mask="url(#mask-4)"></path>
                    <path d="M43.872,563.53 C50.588,566.54 58.479,563.54 61.495,556.83 C64.511,550.11 61.51,542.22 54.793,539.2 C36.878,531.16 17.541,530.29 0,535.33 L0,563.65 C13.458,557.55 29.364,557.01 43.872,563.53" id="Fill-57" fill="#1B1A19" mask="url(#mask-4)"></path>
                </g>
                <path d="M46.169,152.209 C38.807,152.269 32.886,158.286 32.945548,165.648 C33.006,173.01 39.022,178.931 46.385,178.871 C75.789,178.633 99.903,202.361 100.142,231.764 C100.201,239.126 106.218,245.047 113.581,244.987452 C120.943,244.927 126.864,238.91 126.804452,231.548 C126.447,187.443 90.274,151.852 46.169,152.209" id="Fill-59" fill="#1B1A19"></path>
                <path d="M194.885,1861.17 C187.932,1863.58 184.255,1871.18 186.674,1878.14 C196.334,1905.91 181.6,1936.36 153.829,1946.02 C146.875,1948.44 143.198,1956.04 145.617,1963 C148.036,1969.95 155.635,1973.63 162.588,1971.21 C204.246,1956.72 226.348,1911.04 211.857,1869.38 C209.438,1862.42 201.839,1858.75 194.885,1861.17" id="Fill-60" fill="#1B1A19"></path>
                <path d="M324.874,1816.19 C295.474,1815.67 271.984,1791.32 272.511,1761.92 C272.643,1754.56 266.783,1748.48 259.421,1748.35 C252.059,1748.22 245.984,1754.08 245.853,1761.44 C245.062,1805.54 280.296,1842.06 324.396,1842.85 C331.757,1842.98 337.832,1837.12 337.964,1829.76 C338.096,1822.4 332.235,1816.33 324.874,1816.19" id="Fill-61" fill="#1B1A19"></path>
                <path d="M1452.07,1579.54 C1446.78,1584.66 1446.64,1593.1 1451.76,1598.39 C1472.21,1619.52 1471.67,1653.34 1450.54,1673.79 C1445.25,1678.92 1445.12,1687.36 1450.24,1692.65 C1455.36,1697.94 1463.8,1698.07 1469.09,1692.95 C1500.78,1662.27 1501.6,1611.53 1470.92,1579.84 C1465.8,1574.55 1457.36,1574.42 1452.07,1579.54" id="Fill-62" fill="#1B1A19"></path>
                <path d="M2092.84,1513.69 C2086.33,1510.26 2078.26,1512.75 2074.83,1519.26 C2071.39,1525.77 2073.88,1533.84 2080.39,1537.27 C2106.39,1551 2116.38,1583.33 2102.65,1609.33 C2099.21,1615.84 2101.71,1623.9 2108.22,1627.34 C2114.73,1630.78 2122.79,1628.29 2126.23,1621.78 C2146.82,1582.77 2131.84,1534.29 2092.84,1513.69" id="Fill-63" fill="#1B1A19"></path>
                <path d="M134.185,1502.62 C99.325,1529.65 92.947,1579.99 119.968,1614.85 C124.479,1620.67 132.854,1621.73 138.673,1617.22 C144.492,1612.71 145.553,1604.33 141.042,1598.51 C123.028,1575.27 127.28,1541.71 150.52,1523.7 C156.339,1519.19 157.4,1510.81 152.889,1504.99 C148.378,1499.17 140.004,1498.11 134.185,1502.62" id="Fill-64" fill="#1B1A19"></path>
                <path d="M2106.11,1212.88 C2099.55,1216.24 2096.96,1224.28 2100.32,1230.83 C2103.68,1237.38 2111.72,1239.97 2118.27,1236.61 L2150,1220.34 L2150,1190.38 L2106.11,1212.88" id="Fill-65" fill="#1B1A19"></path>
                <path d="M1420.02,1965.8 C1415.82,1959.75 1407.52,1958.24 1401.47,1962.44 C1395.41,1966.63 1393.91,1974.94 1398.1,1980.99 L1455.03,2063.18 C1459.23,2069.23 1467.53,2070.74 1473.58,2066.55 C1479.64,2062.35 1481.14,2054.05 1476.95,2048 L1420.02,1965.8" id="Fill-66" fill="#1B1A19"></path>
                <path d="M1734.04,492.026 C1727.51,488.625 1719.46,491.163 1716.06,497.692 L1669.88,586.373 C1666.47,592.902 1669.01,600.954 1675.54,604.355 C1682.07,607.756 1690.12,605.219 1693.52,598.689 L1739.71,510.009 C1743.11,503.479 1740.57,495.428 1734.04,492.026" id="Fill-67" fill="#1B1A19"></path>
                <path d="M603.828,198.22 L504.206,206.76 C496.871,207.389 491.433,213.846 492.062,221.182 C492.691,228.518 499.148,233.955 506.483,233.326 L606.105,224.786 C613.44,224.157 618.878,217.7 618.249,210.364 C617.62,203.028 611.163,197.591 603.828,198.22" id="Fill-68" fill="#1B1A19"></path>
                <path d="M1310.26,2009.04 C1308.69,2001.85 1301.59,1997.29 1294.39,1998.86 C1287.2,2000.43 1282.64,2007.53 1284.21,2014.73 L1305.53,2112.41 C1307.1,2119.61 1314.2,2124.17 1321.4,2122.6 C1328.59,2121.03 1333.15,2113.92 1331.58,2106.73 L1310.26,2009.04" id="Fill-69" fill="#1B1A19"></path>
                <path d="M2030.93,892.088 C2024.51,888.487 2016.38,890.774 2012.78,897.195 L1963.88,984.406 C1960.27,990.828 1962.56,998.954 1968.98,1002.55 C1975.41,1006.16 1983.53,1003.87 1987.13,997.447 L2036.04,910.237 C2039.64,903.815 2037.35,895.689 2030.93,892.088" id="Fill-70" fill="#1B1A19"></path>
                <path d="M439.416,967.583928 C432.053,967.56 426.064,973.509 426.04,980.872 L425.704928,1080.86 C425.681,1088.22 431.629,1094.21 438.992,1094.23011 C446.355,1094.26 452.344,1088.31 452.368,1080.95 L452.703072,980.96 C452.727,973.598 446.779,967.609 439.416,967.583928" id="Fill-71" fill="#1B1A19"></path>
                <path d="M1947.41,290.868 L1856.25,249.776 C1849.54,246.75 1841.65,249.739 1838.62,256.451 C1835.59,263.164 1838.58,271.058 1845.29,274.084 L1936.45,315.175 C1943.16,318.201 1951.05,315.213 1954.08,308.5 C1957.11,301.788 1954.12,293.894 1947.41,290.868" id="Fill-72" fill="#1B1A19"></path>
                <path d="M781.541,1934.77 L693.636,1982.41 C687.164,1985.92 684.76,1994.01 688.269,2000.48 C691.777,2006.96 699.869,2009.36 706.342,2005.85 L794.247,1958.21 C800.719,1954.7 803.123,1946.61 799.614,1940.13 C796.105,1933.66 788.014,1931.26 781.541,1934.77" id="Fill-73" fill="#1B1A19"></path>
                <path d="M1333.67,717.332 L1236.36,694.349 C1229.19,692.657 1222.01,697.094 1220.32,704.26 C1218.63,711.425 1223.06,718.606 1230.23,720.299 L1327.54,743.281 C1334.7,744.973 1341.88,740.536 1343.58,733.371 C1345.27,726.205 1340.83,719.024 1333.67,717.332" id="Fill-74" fill="#1B1A19"></path>
                <path d="M1290,1794.52 C1286.08,1788.29 1277.85,1786.42 1271.61,1790.33 C1265.38026,1794.25 1263.51,1802.49 1267.43,1808.72 L1320.66,1893.36 C1324.58,1899.58974 1332.81,1901.46 1339.04,1897.54 C1345.27,1893.62 1347.15,1885.39 1343.23,1879.16 L1290,1794.52" id="Fill-75" fill="#1B1A19"></path>
                <path d="M1060.81,2033.74 C1056.76,2027.59 1048.49,2025.89 1042.35,2029.94 C1036.2,2033.99 1034.5,2042.26 1038.55,2048.41 L1093.55,2131.91 C1097.6,2138.05 1105.87,2139.75 1112.02,2135.7 C1118.16,2131.65 1119.87,2123.39 1115.82,2117.24 L1060.81,2033.74" id="Fill-76" fill="#1B1A19"></path>
                <path d="M641.789,2057.89 C637.652,2051.8 629.361,2050.21 623.27,2054.35 C617.179,2058.48 615.594,2066.77 619.73,2072.87 L657.175,2128.01 C661.312,2134.1 669.603,2135.69 675.693,2131.55 C681.784,2127.42 683.37,2119.13 679.234,2113.03 L641.789,2057.89" id="Fill-77" fill="#1B1A19"></path>
                <path d="M67.592,1925.24 C65.069,1918.32 57.416,1914.76 50.5,1917.29 C43.583,1919.81 40.021,1927.46 42.543,1934.38 L65.385,1997 C67.908,2003.92 75.561,2007.48 82.478,2004.96 C89.394,2002.43 92.957,1994.78 90.434,1987.86 L67.592,1925.24" id="Fill-78" fill="#1B1A19"></path>
                <g id="Group-82" transform="translate(0.000000, 1444.000000)">
                    <mask id="mask-6" fill="white">
                        <use xlink:href="#path-5"></use>
                    </mask>
                    <g id="Clip-80"></g>
                    <path d="M1232.33,691.05 C1226.06,687.19 1217.85,689.15 1213.99,695.42 L1207.48,706 L1238.17,706 C1239.74,700.41 1237.52,694.24 1232.33,691.05" id="Fill-79" fill="#1B1A19" mask="url(#mask-6)"></path>
                    <path d="M9.091,38.04 C15.216,33.96 16.87,25.68 12.785,19.56 L0,0.39 L0,40.17 C3.079,40.56 6.306,39.9 9.091,38.04" id="Fill-81" fill="#1B1A19" mask="url(#mask-6)"></path>
                </g>
                <path d="M633.851,1059.83 L569.707,1077.97 C562.621,1079.97 558.501,1087.34 560.504,1094.42 C562.507,1101.51 569.874,1105.63 576.959,1103.62 L641.104,1085.49 C648.189,1083.49 652.309,1076.12 650.306,1069.04 C648.304,1061.95 640.936,1057.83 633.851,1059.83" id="Fill-83" fill="#1B1A19"></path>
                <path d="M989.93,672.826 L923.575,679.171 C916.246,679.873 910.873,686.383 911.573,693.712 C912.274,701.041 918.784,706.415 926.113,705.713 L992.469,699.368 C999.798,698.667 1005.17,692.157 1004.47,684.828 C1003.77,677.499 997.26,672.125 989.93,672.826" id="Fill-84" fill="#1B1A19"></path>
                <path d="M2094.79,197.648 C2088.47,193.88 2080.28,195.953 2076.51,202.278 L2042.4,259.545 C2038.63,265.87 2040.71,274.053 2047.03,277.821 C2053.35,281.589 2061.54,279.516 2065.31,273.191 L2099.42,215.924 C2103.19,209.599 2101.12,201.416 2094.79,197.648" id="Fill-85" fill="#1B1A19"></path>
                <path d="M1363.1,1118.18 L1303.49,1148.01 C1296.9,1151.3 1294.24,1159.31 1297.53,1165.9 C1300.82,1172.48 1308.83,1175.15 1315.42,1171.85 L1375.03,1142.03 C1381.62,1138.73 1384.28,1130.72 1380.99,1124.14 C1377.69,1117.55 1369.68,1114.89 1363.1,1118.18" id="Fill-86" fill="#1B1A19"></path>
                <path d="M2058.95,1756.21 L2013.3,1804.78 C2008.26,1810.14 2008.52,1818.58 2013.89,1823.62 C2019.25,1828.66 2027.69,1828.4 2032.73,1823.04 L2078.38,1774.47 C2083.42,1769.1 2083.16,1760.66 2077.8,1755.62 C2072.43,1750.58 2064,1750.84 2058.95,1756.21" id="Fill-87" fill="#1B1A19"></path>
                <path d="M1935.5,1921.59 C1928.43,1919.53 1921.03,1923.58 1918.96,1930.65 L1900.25,1994.63 C1898.19,2001.69 1902.24,2009.1 1909.31,2011.16 C1916.37,2013.23 1923.78,2009.18 1925.84,2002.11 L1944.55,1938.13 C1946.62,1931.06 1942.56,1923.66 1935.5,1921.59" id="Fill-88" fill="#1B1A19"></path>
                <path d="M1433.95,1789.18 C1430.36,1782.76 1422.24,1780.46 1415.81,1784.05 C1409.38,1787.64 1407.08,1795.76 1410.67,1802.19 L1443.18,1860.38 C1446.77,1866.81 1454.9,1869.11 1461.32,1865.52 C1467.75,1861.93 1470.05,1853.8 1466.46,1847.38 L1433.95,1789.18" id="Fill-89" fill="#1B1A19"></path>
                <path d="M2140.42,2033.76 L2103.72,2089.4 C2099.67,2095.55 2101.36,2103.82 2107.51,2107.87 C2113.65,2111.92 2121.92,2110.23 2125.98,2104.08 L2150,2067.67 L2150,2027.87 C2146.23,2028.31 2142.68,2030.34 2140.42,2033.76" id="Fill-90" fill="#1B1A19"></path>
                <path d="M327.851,1948.8 C321.6,1944.91 313.378,1946.82 309.489,1953.08 L274.281,2009.68 C270.392,2015.93 272.308,2024.15 278.56,2028.04 C284.811,2031.93 293.032,2030.01 296.921,2023.76 L332.13,1967.16 C336.019,1960.91 334.103,1952.69 327.851,1948.8" id="Fill-91" fill="#1B1A19"></path>
                <path d="M1737.89,1477.77 L1673.78,1496.04 C1666.7,1498.06 1662.6,1505.43 1664.62,1512.51 C1666.63,1519.59 1674.01,1523.7 1681.09,1521.68 L1745.2,1503.42 C1752.28,1501.4 1756.38,1494.02 1754.36,1486.94 C1752.35,1479.86 1744.97,1475.75 1737.89,1477.77" id="Fill-92" fill="#1B1A19"></path>
                <path d="M85.613,561.443 L24.405,587.84 C17.644,590.756 14.527,598.601 17.442,605.361 C20.358,612.122 28.202,615.239 34.963,612.324 L96.172,585.927 C102.933,583.011 106.05,575.167 103.134,568.406 C100.219,561.646 92.375,558.528 85.613,561.443" id="Fill-93" fill="#1B1A19"></path>
                <path d="M1268.04,814.37 C1263.88,808.292 1255.58,806.736 1249.5,810.892 C1243.43,815.048 1241.87,823.345 1246.03,829.422 L1283.66,884.442 C1287.82,890.52 1296.11,892.076 1302.19,887.92 C1308.27,883.763 1309.82,875.467 1305.67,869.39 L1268.04,814.37" id="Fill-94" fill="#1B1A19"></path>
                <path d="M257.582,573.249 L191.586,582.619 C184.296,583.654 179.226,590.403 180.26,597.692 C181.295,604.982 188.044,610.053 195.334,609.018 L261.33,599.647 C268.62,598.612 273.69,591.863 272.655,584.574 C271.62,577.285 264.872,572.214 257.582,573.249" id="Fill-95" fill="#1B1A19"></path>
                <path d="M557.428,922.581 C555.416,915.499 548.043,911.388 540.961,913.4 C533.879,915.412 529.768,922.785 531.78,929.867 L549.996,993.988 C552.007,1001.07 559.38,1005.18 566.463,1003.17 C573.545,1001.16 577.656,993.785 575.644,986.702 L557.428,922.581" id="Fill-96" fill="#1B1A19"></path>
                <path d="M1531.35,1076.87 L1466.92,1059.76 C1459.81,1057.88 1452.51,1062.11 1450.62,1069.23 C1448.73,1076.34 1452.97,1083.65 1460.08,1085.54 L1524.51,1102.64 C1531.63,1104.53 1538.93,1100.29 1540.81,1093.17 C1542.7,1086.06 1538.47,1078.76 1531.35,1076.87" id="Fill-97" fill="#1B1A19"></path>
                <path d="M529.479,1613.56 C522.213,1612.37 515.356,1617.29 514.163,1624.56 L503.361,1690.33 C502.168,1697.6 507.091,1704.46 514.356,1705.65 C521.621,1706.84 528.479,1701.92 529.672,1694.66 L540.473,1628.88 C541.667,1621.61 536.743,1614.76 529.479,1613.56" id="Fill-98" fill="#1B1A19"></path>
                <path d="M422.678,1876.78 C418.338,1870.83 409.998,1869.53 404.05,1873.87 C398.103,1878.21 396.798,1886.55 401.138,1892.5 L440.426,1946.35 C444.766,1952.29 453.105,1953.6 459.053,1949.26 C465.001,1944.92 466.305,1936.58 461.966,1930.63 L422.678,1876.78" id="Fill-99" fill="#1B1A19"></path>
                <path d="M168.819,845.712 L106.482,822.104 C99.597,819.496 91.901,822.964 89.293,829.849 C86.685,836.734 90.153,844.431 97.039,847.039 L159.376,870.647 C166.262,873.255 173.958,869.787 176.565,862.901 C179.173,856.016 175.705,848.32 168.819,845.712" id="Fill-100" fill="#1B1A19"></path>
                <path d="M676.281,1792.16 C675.523,1784.83 668.971,1779.51 661.648,1780.27 C654.325,1781.03 649.001,1787.58 649.759,1794.9 L656.619,1861.21 C657.377,1868.53 663.929,1873.85 671.252,1873.09 C678.575,1872.34 683.898,1865.79 683.141,1858.46 L676.281,1792.16" id="Fill-101" fill="#1B1A19"></path>
                <path d="M421.103,1592.6 L356.057,1578.03 C348.872,1576.42 341.743,1580.94 340.134,1588.13 C338.524,1595.31 343.044,1602.44 350.229,1604.05 L415.276,1618.62 C422.461,1620.23 429.59,1615.71 431.199,1608.52 C432.808,1601.34 428.288,1594.21 421.103,1592.6" id="Fill-102" fill="#1B1A19"></path>
                <path d="M1597.35,1625.87 C1593.68,1619.48 1585.54,1617.28 1579.15,1620.94 C1572.76,1624.6 1570.55,1632.75 1574.22,1639.14 L1607.38,1696.96 C1611.04,1703.35 1619.19,1705.55 1625.58,1701.89 C1631.96,1698.23 1634.17,1690.08 1630.51,1683.7 L1597.35,1625.87" id="Fill-103" fill="#1B1A19"></path>
                <path d="M894.218,1431.04 C887.105,1429.14 879.798,1433.37 877.897,1440.48 L860.695,1504.88 C858.795,1511.99 863.022,1519.3 870.135,1521.2 C877.248,1523.1 884.555,1518.87 886.456,1511.76 L903.658,1447.36 C905.558,1440.25 901.331,1432.94 894.218,1431.04" id="Fill-104" fill="#1B1A19"></path>
                <path d="M2075.18,707.919 C2058,718.558 2035.35,713.229 2024.72,696.039 C2014.08,678.85 2019.41,656.209 2036.6,645.571 C2053.79,634.933 2076.42,640.262 2087.06,657.451 C2097.7,674.641 2092.37,697.281 2075.18,707.919 Z M2022.56,622.899 C1992.87,641.275 1983.67,680.38 2002.04,710.071 C2020.42,739.762 2059.53,748.967 2089.22,730.591 C2118.91,712.215 2128.11,673.11 2109.74,643.419 C2091.36,613.728 2052.25,604.523 2022.56,622.899 L2022.56,622.899 Z" id="Fill-105" fill="#1B1A19"></path>
                <path d="M931.82,1075.87 C911.605,1075.87 895.164,1059.42 895.170998,1039.2 C895.178,1018.98 911.63,1002.54 931.845,1002.55 C952.06,1002.56 968.501,1019.01 968.495002,1039.22 C968.488,1059.44 952.035,1075.88 931.82,1075.87 Z M931.854,975.886996 C896.937,975.875 868.52,1004.27 868.507996,1039.19 C868.496,1074.11 896.894,1102.53 931.812,1102.54 C966.729,1102.55 995.146,1074.15 995.158003,1039.23 C995.169,1004.32 966.771,975.899 931.854,975.886996 L931.854,975.886996 Z" id="Fill-106" fill="#1B1A19"></path>
                <path d="M1546.72,1432.85 C1530.52,1444.94 1507.5,1441.6 1495.41,1425.4 C1483.32,1409.19 1486.67,1386.18 1502.87,1374.09 C1519.07,1362 1542.09,1365.34 1554.18,1381.55 C1566.27,1397.75 1562.92,1420.77 1546.72,1432.85 Z M1486.93,1352.72 C1458.94,1373.6 1453.16,1413.36 1474.04,1441.34 C1494.93,1469.33 1534.68,1475.11 1562.67,1454.22 C1590.65,1433.34 1596.43,1393.59 1575.55,1365.6 C1554.67,1337.62 1514.91,1331.84 1486.93,1352.72 L1486.93,1352.72 Z" id="Fill-107" fill="#1B1A19"></path>
                <path d="M1273.86,384.51 C1253.67,385.57 1236.38,370.007 1235.32,349.82 C1234.26,329.633 1249.83,312.347 1270.01,311.288 C1290.2,310.228 1307.49,325.791 1308.55,345.978 C1309.61,366.164 1294.04,383.451 1273.86,384.51 Z M1268.62,284.661 C1233.75,286.491 1206.87,316.349 1208.7,351.218 C1210.53,386.087 1240.38,412.967 1275.25,411.137 C1310.12,409.307 1337,379.449 1335.17,344.58 C1333.34,309.71 1303.49,282.831 1268.62,284.661 L1268.62,284.661 Z" id="Fill-108" fill="#1B1A19"></path>
                <path d="M172.99,436.211 C153.717,442.312 133.074,431.595 126.974,412.322 C120.873,393.049 131.59,372.406 150.863,366.306 C170.135,360.206 190.778,370.922 196.879,390.195 C202.979,409.468 192.262,430.111 172.99,436.211 Z M142.816,340.886 C109.527,351.423 91.017,387.079 101.554,420.368 C112.091,453.658 147.747,472.168 181.036,461.631 C214.326,451.094 232.836,415.438 222.299,382.149 C211.762,348.859 176.106,330.349 142.816,340.886 L142.816,340.886 Z" id="Fill-109" fill="#1B1A19"></path>
                <path d="M502.429,86.324 C534.389,100.387 571.832,85.826 585.895,53.866 C593.784,35.937 592.663,16.284 584.518,0 L551.109,0 C563.538,10.165 568.264,27.732 561.49,43.127 C553.349,61.63 531.671,70.061 513.167,61.918 C494.664,53.777 486.234,32.099 494.376,13.596 C496.788,8.115 500.408,3.544 504.761,0 L471.316,0 C470.847,0.937 470.397,1.888 469.971,2.857 C455.908,34.817 470.468,72.261 502.429,86.324" id="Fill-110" fill="#1B1A19"></path>
                <path d="M1008,539.039 C1002.54,558.503 982.26,569.896 962.796,564.437 C943.333,558.977 931.939,538.7 937.399,519.235 C942.858,499.771 963.136,488.378 982.6,493.837 C1002.06,499.297 1013.46,519.575 1008,539.039 Z M989.801,468.166 C956.181,458.735 921.157,478.414 911.727,512.034 C902.296,545.654 921.976,580.678 955.595,590.109 C989.215,599.539 1024.24,579.86 1033.67,546.24 C1043.1,512.62 1023.42,477.596 989.801,468.166 L989.801,468.166 Z" id="Fill-111" fill="#1B1A19"></path>
                <path d="M650.666,1473.79 C642.558,1492.3 620.896,1500.77 602.378,1492.67 C583.86,1484.56 575.389,1462.9 583.496,1444.38 C591.604,1425.86 613.266,1417.39 631.784,1425.5 C650.302,1433.61 658.772,1455.27 650.666,1473.79 Z M642.477,1401.07 C610.49,1387.07 573.075,1401.7 559.071,1433.69 C545.068,1465.67 559.698,1503.09 591.685,1517.09 C623.671,1531.1 661.087,1516.46 675.09,1484.48 C689.094,1452.49 674.463,1415.08 642.477,1401.07 L642.477,1401.07 Z" id="Fill-112" fill="#1B1A19"></path>
                <path d="M1777.68,152.528 C1763.72,167.149 1740.47,167.686 1725.85,153.726 C1711.23,139.765 1710.69,116.512 1724.65,101.892 C1738.61,87.271 1761.87,86.734 1776.49,100.694 C1791.11,114.655 1791.64,137.908 1777.68,152.528 Z M1705.37,83.478 C1681.25,108.732 1682.18,148.896 1707.43,173.009 C1732.69,197.123 1772.85,196.196 1796.97,170.942 C1821.08,145.688 1820.15,105.524 1794.9,81.411 C1769.64,57.297 1729.48,58.224 1705.37,83.478 L1705.37,83.478 Z" id="Fill-113" fill="#1B1A19"></path>
                <path d="M1254.29,565.622 C1240.49,580.389 1217.24,581.171 1202.47,567.365 C1187.71,553.56 1186.92,530.314 1200.73,515.547 C1214.54,500.78 1237.78,499.999 1252.55,513.804 C1267.32,527.609 1268.1,550.855 1254.29,565.622 Z M1270.76,494.327 C1245.25,470.48 1205.1,471.831 1181.25,497.337 C1157.41,522.844 1158.76,562.996 1184.26,586.842 C1209.77,610.688 1249.92,609.338 1273.77,583.832 C1297.62,558.325 1296.26,518.173 1270.76,494.327 L1270.76,494.327 Z" id="Fill-114" fill="#1B1A19"></path>
                <path d="M301.227,1426.15 C296.435,1445.79 276.558,1457.87 256.918,1453.08 C237.279,1448.28 225.201,1428.41 229.994,1408.77 C234.787,1389.13 254.664,1377.05 274.303,1381.84 C293.942,1386.64 306.02,1406.51 301.227,1426.15 Z M280.625,1355.94 C246.703,1347.66 212.37,1368.52 204.091,1402.45 C195.813,1436.37 216.675,1470.7 250.597,1478.98 C284.519,1487.26 318.852,1466.4 327.13,1432.47 C335.409,1398.55 314.546,1364.22 280.625,1355.94 L280.625,1355.94 Z" id="Fill-115" fill="#1B1A19"></path>
                <path d="M1353.82,1515.13 C1334.18,1519.92 1314.3,1507.84 1309.51,1488.2 C1304.72,1468.56 1316.8,1448.68 1336.44,1443.89 C1356.08,1439.1 1375.95,1451.18 1380.75,1470.82 C1385.54,1490.46 1373.46,1510.34 1353.82,1515.13 Z M1330.12,1417.99 C1296.2,1426.26 1275.33,1460.59 1283.61,1494.52 C1291.88,1528.44 1326.21,1549.31 1360.14,1541.03 C1394.06,1532.75 1414.92,1498.42 1406.65,1464.5 C1398.37,1430.58 1364.04,1409.71 1330.12,1417.99 L1330.12,1417.99 Z" id="Fill-116" fill="#1B1A19"></path>
                <path d="M540.877,1273.1 C524.84,1285.41 501.78,1282.37 489.473,1266.33 C477.167,1250.3 480.203,1227.24 496.24,1214.93 C512.278,1202.62 535.338,1205.66 547.645,1221.7 C559.951,1237.74 556.915,1260.79 540.877,1273.1 Z M480.008,1193.78 C452.307,1215.03 447.063,1254.86 468.32,1282.57 C489.577,1310.27 529.408,1315.51 557.109,1294.25 C584.811,1273 590.054,1233.17 568.797,1205.47 C547.541,1177.76 507.71,1172.52 480.008,1193.78 L480.008,1193.78 Z" id="Fill-117" fill="#1B1A19"></path>
                <path d="M1248.85,1951.18 C1221.51,1929.45 1181.6,1934.02 1159.88,1961.36 C1138.15,1988.7 1142.72,2028.62 1170.06,2050.34 C1175.83,2054.92 1184.21,2053.96 1188.79,2048.19 C1193.38,2042.43 1192.41,2034.04 1186.65,2029.46 C1170.82,2016.89 1168.18,1993.78 1180.75,1977.95 C1193.33,1962.12 1216.44,1959.48 1232.26,1972.05 C1238.03,1976.63 1246.41,1975.67 1250.99,1969.91 C1255.57,1964.14 1254.61,1955.75 1248.85,1951.18" id="Fill-118" fill="#1B1A19"></path>
                <path d="M1435.7,184.045 C1429.48,187.989 1427.64,196.228 1431.58,202.444 C1442.41,219.513 1437.33,242.212 1420.26,253.042 C1403.2,263.872 1380.5,258.794 1369.67,241.725 C1365.72,235.508 1357.49,233.666 1351.27,237.61 C1345.05,241.555 1343.21,249.792 1347.15,256.009 C1365.86,285.493 1405.06,294.262 1434.55,275.556 C1464.03,256.85 1472.8,217.644 1454.1,188.16 C1450.15,181.943 1441.91,180.101 1435.7,184.045" id="Fill-119" fill="#1B1A19"></path>
                <path d="M1828.05,334.933 C1821.24,337.708 1817.96,345.488 1820.73,352.307 C1828.35,371.03 1819.32,392.464 1800.6,400.086 C1781.88,407.708 1760.44,398.675 1752.82,379.952 C1750.04,373.133 1742.27,369.854 1735.45,372.631 C1728.63,375.407 1725.35,383.186 1728.13,390.005 C1741.29,422.345 1778.31,437.946 1810.65,424.781 C1842.99,411.616 1858.59,374.595 1845.43,342.254 C1842.65,335.435 1834.87,332.157 1828.05,334.933" id="Fill-120" fill="#1B1A19"></path>
                <path d="M1761.1,1794.08 C1753.75,1793.68 1747.47,1799.32 1747.07,1806.67 C1746.67,1814.02 1752.31,1820.31 1759.67,1820.7 C1779.85,1821.79 1795.39,1839.1 1794.3,1859.29 C1793.21,1879.47 1775.9,1895.01 1755.71,1893.92 C1748.36,1893.52 1742.08,1899.16 1741.68,1906.51 C1741.28,1913.87 1746.92,1920.15 1754.27,1920.54 C1789.14,1922.43 1819.04,1895.59 1820.92,1860.73 C1822.8,1825.86 1795.97,1795.96 1761.1,1794.08" id="Fill-121" fill="#1B1A19"></path>
                <path d="M1827.67,691.123 C1821.29,687.446 1813.14,689.637 1809.47,696.016 C1799.37,713.529 1776.91,719.565 1759.39,709.47 C1741.88,699.374 1735.85,676.912 1745.94,659.398 C1749.62,653.02 1747.43,644.867 1741.05,641.19 C1734.67,637.513 1726.52,639.704 1722.84,646.083 C1705.4,676.334 1715.83,715.132 1746.08,732.57 C1776.33,750.008 1815.13,739.583 1832.57,709.331 C1836.24,702.953 1834.05,694.8 1827.67,691.123" id="Fill-122" fill="#1B1A19"></path>
                <path d="M1894.99,1326.09 C1889.52,1321.16 1881.09,1321.59 1876.16,1327.05 C1871.22,1332.52 1871.66,1340.95 1877.12,1345.88 C1892.12,1359.43 1893.31,1382.66 1879.76,1397.66 C1866.21,1412.67 1842.99,1413.85 1827.98,1400.3 C1822.52,1395.37 1814.09,1395.8 1809.15,1401.26 C1804.22,1406.73 1804.65,1415.16 1810.11,1420.09 C1836.03,1443.49 1876.15,1441.45 1899.55,1415.53 C1922.95,1389.61 1920.9,1349.49 1894.99,1326.09" id="Fill-123" fill="#1B1A19"></path>
                <path d="M1700.71,1076.96 C1667.29,1066.87 1631.88,1085.85 1621.78,1119.27 C1619.66,1126.32 1623.64,1133.76 1630.69,1135.89 C1637.74,1138.02 1645.18,1134.03 1647.31,1126.98 C1653.15,1107.63 1673.65,1096.64 1693,1102.49 C1712.36,1108.33 1723.34,1128.83 1717.5,1148.18 C1715.37,1155.23 1719.36,1162.67 1726.41,1164.8 C1733.46,1166.93 1740.89,1162.94 1743.02,1155.89 C1753.12,1122.47 1734.14,1087.06 1700.71,1076.96" id="Fill-124" fill="#1B1A19"></path>
                <path d="M591.83,551.937 C563.225,531.912 523.661,538.893 503.637,567.498 C499.415,573.529 500.881,581.842 506.913,586.064 C512.945,590.287 521.258,588.82 525.479,582.788 C537.073,566.228 559.978,562.186 576.539,573.779 C593.1,585.373 597.141,608.278 585.547,624.838 C581.325,630.87 582.792,639.183 588.824,643.405 C594.855,647.628 603.168,646.161 607.391,640.129 C627.415,611.524 620.435,571.961 591.83,551.937" id="Fill-125" fill="#1B1A19"></path>
                <path d="M1066.72,1305.38 C1059.96,1308.32 1056.87,1316.17 1059.8,1322.92 C1067.85,1341.46 1059.32,1363.1 1040.78,1371.16 C1022.24,1379.21 1000.6,1370.68 992.549,1352.14 C989.615,1345.38 981.763,1342.29 975.009,1345.22 C968.256,1348.16 965.16,1356.01 968.093,1362.76 C982.006,1394.79 1019.38,1409.52 1051.41,1395.61 C1083.43,1381.7 1098.17,1344.32 1084.26,1312.3 C1081.32,1305.55 1073.47,1302.45 1066.72,1305.38" id="Fill-126" fill="#1B1A19"></path>
                <path d="M736.774,1721.87 C729.623,1723.62 725.246,1730.84 726.999,1737.99 C728.751,1745.14 735.969,1749.52 743.12,1747.77 C762.754,1742.96 782.643,1755.02 787.454,1774.65 C792.265,1794.28 780.205,1814.17 760.571,1818.98 C753.42,1820.74 749.043,1827.95 750.795,1835.11 C752.548,1842.26 759.767,1846.63 766.917,1844.88 C800.831,1836.57 821.662,1802.22 813.351,1768.3 C805.041,1734.39 770.688,1713.56 736.774,1721.87" id="Fill-127" fill="#1B1A19"></path>
                <path d="M780.073,906.927 C772.747,906.189 766.21,911.53 765.472,918.855 C763.446,938.968 745.434,953.685 725.32,951.659 C705.207,949.633 690.492,931.62 692.518,911.507 C693.255,904.182 687.915,897.645 680.589,896.906 C673.263,896.168 666.727,901.509 665.988,908.835 C662.489,943.576 687.906,974.688 722.648,978.188 C757.39,981.687 788.501,956.269 792.001,921.528 C792.739,914.203 787.398,907.665 780.073,906.927" id="Fill-128" fill="#1B1A19"></path>
                <path d="M2055.27,1042.85 C2049,1046.71 2047.05,1054.92 2050.91,1061.19 C2061.51,1078.4 2056.13,1101.03 2038.91,1111.63 C2021.7,1122.23 1999.07,1116.85 1988.47,1099.64 C1984.61,1093.37 1976.4,1091.42 1970.13,1095.28 C1963.86,1099.14 1961.91,1107.35 1965.77,1113.62 C1984.08,1143.35 2023.16,1152.64 2052.89,1134.33 C2082.63,1116.03 2091.92,1076.94 2073.61,1047.21 C2069.75,1040.94 2061.54,1038.99 2055.27,1042.85" id="Fill-129" fill="#1B1A19"></path>
                <path d="M2010.59,1596.06 C2003.79,1598.89 2000.58,1606.7 2003.42,1613.5 C2011.21,1632.15 2002.37,1653.66 1983.71,1661.45 C1965.06,1669.24 1943.55,1660.4 1935.76,1641.75 C1932.92,1634.95 1925.11,1631.74 1918.32,1634.58 C1911.52,1637.42 1908.32,1645.23 1911.15,1652.02 C1924.61,1684.24 1961.77,1699.51 1993.99,1686.06 C2026.21,1672.6 2041.48,1635.44 2028.02,1603.22 C2025.19,1596.43 2017.38,1593.22 2010.59,1596.06" id="Fill-130" fill="#1B1A19"></path>
                <path d="M1098.6,766.985 C1091.25,766.641 1085.01,772.323 1084.66,779.678 C1084.32,787.033 1090,793.274 1097.35,793.619 C1108.37,794.136 1116.91,803.517 1116.39,814.531 C1116.03,822.202 1102.39,828.617 1089.19,834.822 C1070.75,843.49 1047.8,854.276 1046.69,877.995 C1045.48,903.695 1065.41,925.584 1091.11,926.789 C1098.47,927.133 1104.71,921.451 1105.05,914.096 C1105.4,906.741 1099.71,900.5 1092.36,900.155 C1081.34,899.638 1072.8,890.257 1073.32,879.243 C1073.68,871.572 1087.33,865.157 1100.53,858.952 C1118.97,850.284 1141.92,839.497 1143.03,815.779 C1144.23,790.079 1124.3,768.19 1098.6,766.985" id="Fill-131" fill="#1B1A19"></path>
                <path d="M1569.94,158.778 C1561.33,165.664 1548.72,164.257 1541.83,155.644 C1537.04,149.646 1543.05,135.816 1548.87,122.441 C1557,103.756 1567.11,80.503 1552.28,61.956 C1536.22,41.859 1506.8,38.579 1486.7,54.643 C1480.95,59.24 1480.01,67.629 1484.61,73.381 C1489.21,79.132 1497.6,80.067 1503.35,75.47 C1511.96,68.585 1524.57,69.991 1531.45,78.604 C1536.25,84.603 1530.24,98.433 1524.42,111.808 C1516.29,130.492 1506.18,153.746 1521.01,172.292 C1537.07,192.389 1566.49,195.669 1586.59,179.605 C1592.34,175.008 1593.28,166.619 1588.68,160.868 C1584.08,155.116 1575.69,154.181 1569.94,158.778" id="Fill-132" fill="#1B1A19"></path>
                <path d="M1038.82,1871.29 C1053.98,1857.67 1072.84,1840.72 1067.06,1817.69 C1060.8,1792.74 1035.4,1777.53 1010.45,1783.79 C1003.31,1785.58 998.971,1792.82 1000.76,1799.96 C1002.55,1807.1 1009.8,1811.44 1016.94,1809.65 C1027.63,1806.97 1038.52,1813.49 1041.2,1824.18 C1043.07,1831.63 1031.85,1841.71 1021,1851.46 C1005.85,1865.08 986.985,1882.02 992.762,1905.05 C999.022,1930.01 1024.42,1945.22 1049.37,1938.96 C1056.51,1937.17 1060.85,1929.93 1059.06,1922.78 C1057.27,1915.64 1050.03,1911.31 1042.89,1913.1 C1032.19,1915.78 1021.31,1909.26 1018.62,1898.57 C1016.76,1891.12 1027.97,1881.04 1038.82,1871.29" id="Fill-133" fill="#1B1A19"></path>
                <path d="M619.811,702.112 C612.453,701.875 606.294,707.649 606.058,715.009 C605.822,722.368 611.596,728.525 618.955,728.762 C629.977,729.116 638.654,738.37 638.3,749.391 C638.053,757.066 624.5,763.682 611.394,770.08 C593.084,779.018 570.298,790.142 569.536,813.874 C568.709,839.589 588.958,861.182 614.673,862.008 C622.032,862.245 628.19,856.471 628.426,849.112 C628.663,841.753 622.888,835.596 615.53,835.359 C604.508,835.005 595.831,825.751 596.185,814.73 C596.432,807.055 609.984,800.439 623.09,794.041 C641.4,785.103 664.187,773.979 664.949,750.247 C665.775,724.532 645.526,702.938 619.811,702.112" id="Fill-134" fill="#1B1A19"></path>
                <path d="M332.709,668.518 C326.528,664.518 318.274,666.286 314.274,672.468 C310.274,678.649 312.043,686.903 318.224,690.903 C327.482,696.894 330.14,709.298 324.149,718.556 C319.978,725.003 304.955,723.677 290.427,722.394 C270.13,720.603 244.872,718.372 231.973,738.307 C217.996,759.908 224.198,788.853 245.799,802.83 C251.98,806.83 260.234,805.062 264.234,798.88 C268.234,792.698 266.465,784.444 260.284,780.445 C251.025,774.454 248.368,762.049 254.358,752.792 C258.53,746.345 273.553,747.671 288.081,748.954 C308.377,750.746 333.635,752.976 346.535,733.041 C360.512,711.44 354.31,682.495 332.709,668.518" id="Fill-135" fill="#1B1A19"></path>
                <path d="M1594.78,519.626 C1610.49,506.654 1630.05,490.509 1625.24,467.257 C1620.03,442.062 1595.29,425.804 1570.09,431.015 C1562.88,432.506 1558.25,439.56 1559.74,446.771 C1561.23,453.981 1568.28,458.617 1575.49,457.125 C1586.29,454.892 1596.89,461.86 1599.13,472.658 C1600.68,480.178 1589.05,489.78 1577.81,499.066 C1562.1,512.039 1542.54,528.184 1547.35,551.436 C1552.56,576.631 1577.3,592.889 1602.5,587.678 C1609.71,586.187 1614.34,579.132 1612.85,571.922 C1611.36,564.712 1604.31,560.076 1597.1,561.567 C1586.3,563.801 1575.7,556.833 1573.46,546.035 C1571.91,538.515 1583.54,528.913 1594.78,519.626" id="Fill-136" fill="#1B1A19"></path>
                <path d="M805.717,325.832 C798.357,326.039 792.558,332.173 792.765,339.533 C792.972,346.894 799.107,352.692 806.466,352.485 C817.489,352.175 826.708,360.89 827.018,371.912 C827.234,379.588 814.104,387.008 801.407,394.184 C783.669,404.208 761.593,416.683 762.261,440.418 C762.984,466.136 784.497,486.471 810.215,485.748 C817.575,485.541 823.374,479.407 823.167,472.046 C822.959,464.687 816.825,458.888 809.465,459.095 C798.442,459.405 789.224,450.69 788.914,439.668 C788.698,431.992 801.827,424.572 814.524,417.396 C832.263,407.372 854.338,394.896 853.671,371.162 C852.947,345.443 831.435,325.108 805.717,325.832" id="Fill-137" fill="#1B1A19"></path>
                <path d="M1449.41,528.837 C1442.51,526.27 1434.84,529.782 1432.27,536.683 C1429.7,543.583 1433.21,551.259 1440.11,553.827 C1450.45,557.672 1455.73,569.208 1451.88,579.542 C1449.2,586.739 1434.25,588.695 1419.79,590.586 C1399.59,593.228 1374.44,596.516 1366.16,618.769 C1357.19,642.883 1369.51,669.8 1393.62,678.772 C1400.52,681.34 1408.2,677.828 1410.77,670.927 C1413.33,664.027 1409.82,656.351 1402.92,653.784 C1392.59,649.938 1387.31,638.402 1391.15,628.068 C1393.83,620.871 1408.78,618.915 1423.25,617.024 C1443.45,614.382 1468.59,611.094 1476.87,588.841 C1485.84,564.728 1473.53,537.81 1449.41,528.837" id="Fill-138" fill="#1B1A19"></path>
                <path d="M591.354,1903.09 C583.494,1910.83 570.808,1910.72 563.074,1902.86 C557.688,1897.39 562.248,1883.02 566.658,1869.11 C572.818,1849.69 580.485,1825.52 563.832,1808.6 C545.785,1790.26 516.184,1790.02 497.846,1808.07 C492.598,1813.23 492.53,1821.67 497.694,1826.92 C502.858,1832.17 511.3,1832.24 516.547,1827.07 C524.407,1819.34 537.093,1819.44 544.827,1827.3 C550.213,1832.77 545.653,1847.15 541.243,1861.05 C535.083,1880.47 527.416,1904.64 544.069,1921.57 C562.116,1939.9 591.717,1940.14 610.055,1922.1 C615.303,1916.93 615.371,1908.49 610.207,1903.24 C605.042,1897.99 596.601,1897.93 591.354,1903.09" id="Fill-139" fill="#1B1A19"></path>
                <path d="M1357.16,1645.1 C1349.83,1645.76 1344.42,1652.24 1345.08,1659.57 C1346.07,1670.56 1337.94,1680.3 1326.96,1681.28 C1319.31,1681.97 1311.09,1669.33 1303.15,1657.09 C1292.05,1640.01 1278.24,1618.74 1254.59,1620.87 C1228.96,1623.18 1209.99,1645.9 1212.3,1671.53 C1212.96,1678.86 1219.44,1684.27 1226.77,1683.61 C1234.11,1682.95 1239.52,1676.47 1238.86,1669.14 C1237.87,1658.15 1246,1648.42 1256.98,1647.43 C1264.63,1646.74 1272.84,1659.39 1280.79,1671.62 C1291.89,1688.7 1305.7,1709.97 1329.35,1707.84 C1354.97,1705.53 1373.94,1682.81 1371.64,1657.18 C1370.98,1649.85 1364.5,1644.44 1357.16,1645.1" id="Fill-140" fill="#1B1A19"></path>
                <path d="M420.6,525.742 C414.173,522.149 406.05,524.448 402.458,530.875 C397.078,540.5 384.871,543.953 375.246,538.573 C368.542,534.827 368.896,519.75 369.238,505.169 C369.715,484.799 370.309,459.45 349.583,447.865 C327.125,435.312 298.641,443.371 286.087,465.829 C282.496,472.255 284.793,480.378 291.22,483.97 C297.647,487.563 305.77,485.264 309.362,478.838 C314.742,469.212 326.949,465.759 336.574,471.139 C343.277,474.886 342.924,489.962 342.582,504.543 C342.105,524.913 341.51,550.263 362.237,561.847 C384.695,574.4 413.179,566.342 425.732,543.884 C429.325,537.457 427.027,529.334 420.6,525.742" id="Fill-141" fill="#1B1A19"></path>
                <path d="M59.203,54.71 C67.602,79.03 94.221,91.981 118.54,83.582 C125.499,81.178 129.192,73.587 126.789,66.628 C124.385,59.668 116.794,55.976 109.835,58.379 C99.412,61.979 88.005,56.428 84.405,46.006 C81.898,38.748 92.2,27.733 102.162,17.082 C107.062,11.843 112.378,6.152 116.879,0 L81.632,0 C67.915,14.685 51.646,32.832 59.203,54.71" id="Fill-142" fill="#1B1A19"></path>
                <path d="M1687.15,1230.75 C1679.79,1230.51 1673.63,1236.28 1673.39,1243.64 C1673.02,1254.66 1663.76,1263.33 1652.74,1262.97 C1645.07,1262.72 1638.46,1249.16 1632.07,1236.05 C1623.15,1217.74 1612.04,1194.94 1588.31,1194.16 C1562.59,1193.32 1540.99,1213.55 1540.14,1239.26 C1539.9,1246.62 1545.67,1252.79 1553.03,1253.03 C1560.39,1253.27 1566.55,1247.5 1566.79,1240.14 C1567.15,1229.12 1576.41,1220.45 1587.43,1220.81 C1595.11,1221.06 1601.72,1234.62 1608.1,1247.73 C1617.03,1266.05 1628.14,1288.84 1651.87,1289.62 C1677.58,1290.47 1699.19,1270.23 1700.04,1244.52 C1700.28,1237.16 1694.51,1231 1687.15,1230.75" id="Fill-143" fill="#1B1A19"></path>
                <path d="M1455.87,1193.12 C1449.77,1189 1441.48,1190.61 1437.37,1196.72 C1433.25,1202.83 1434.87,1211.11 1440.97,1215.23 C1450.12,1221.39 1452.54,1233.84 1446.38,1242.99 C1442.09,1249.35 1427.09,1247.75 1412.59,1246.19 C1392.33,1244.02 1367.12,1241.32 1353.85,1261.01 C1339.47,1282.35 1345.13,1311.4 1366.47,1325.78 C1372.58,1329.9 1380.86,1328.28 1384.98,1322.18 C1389.09,1316.07 1387.48,1307.78 1381.37,1303.67 C1372.23,1297.51 1369.8,1285.06 1375.96,1275.91 C1380.25,1269.54 1395.25,1271.15 1409.75,1272.7 C1430.01,1274.87 1455.22,1277.58 1468.49,1257.89 C1482.87,1236.55 1477.21,1207.49 1455.87,1193.12" id="Fill-144" fill="#1B1A19"></path>
                <path d="M1397.25,924.14 C1389.97,925.247 1384.97,932.046 1386.07,939.325 C1387.73,950.227 1380.21,960.444 1369.31,962.103 C1343.88,965.972 1326.33,989.814 1330.2,1015.25 C1331.31,1022.53 1338.11,1027.53 1345.39,1026.42 C1352.67,1025.32 1357.67,1018.52 1356.56,1011.24 C1354.9,1000.34 1362.42,990.121 1373.32,988.462 C1398.76,984.592 1416.3,960.75 1412.43,935.314 C1411.33,928.036 1404.53,923.032 1397.25,924.14" id="Fill-145" fill="#1B1A19"></path>
                <path d="M1954.22,1834.16 C1943.34,1832.38 1935.93,1822.08 1937.71,1811.2 C1941.86,1785.81 1924.57,1761.78 1899.18,1757.63 C1891.91,1756.44 1885.06,1761.37 1883.87,1768.64 C1882.69,1775.91 1887.62,1782.76 1894.88,1783.95 C1905.76,1785.72 1913.17,1796.02 1911.4,1806.9 C1907.25,1832.3 1924.54,1856.33 1949.93,1860.47 C1957.19,1861.66 1964.05,1856.73 1965.23,1849.46 C1966.42,1842.2 1961.49,1835.34 1954.22,1834.16" id="Fill-146" fill="#1B1A19"></path>
                <path d="M1143.36,678.703 C1132.35,678.16 1123.83,668.758 1124.38,657.745 C1125.64,632.047 1105.77,610.111 1080.07,608.844 C1072.71,608.481 1066.46,614.149 1066.1,621.503 C1065.73,628.857 1071.4,635.112 1078.76,635.475 C1089.77,636.018 1098.29,645.419 1097.74,656.433 C1096.48,682.13 1116.35,704.067 1142.05,705.333 C1149.4,705.696 1155.66,700.028 1156.02,692.674 C1156.39,685.32 1150.72,679.065 1143.36,678.703" id="Fill-147" fill="#1B1A19"></path>
                <path d="M858.962,1159.17 C851.732,1157.77 844.742,1162.51 843.349,1169.74 C841.262,1180.56 830.756,1187.67 819.929,1185.59 C794.665,1180.72 770.15,1197.31 765.282,1222.58 C763.889,1229.81 768.62,1236.8 775.85,1238.19 C783.08,1239.58 790.07,1234.85 791.463,1227.62 C793.55,1216.79 804.056,1209.68 814.883,1211.77 C840.147,1216.64 864.662,1200.04 869.53,1174.78 C870.923,1167.55 866.192,1160.56 858.962,1159.17" id="Fill-148" fill="#1B1A19"></path>
                <path d="M2038.05,2134.87 C2027.61,2131.31 2022.01,2119.93 2025.57,2109.49 C2033.86,2085.14 2020.78,2058.58 1996.43,2050.29 C1989.46,2047.91 1981.88,2051.64 1979.51,2058.61 C1977.14,2065.58 1980.87,2073.15 1987.84,2075.53 C1998.28,2079.08 2003.88,2090.46 2000.32,2100.9 C1994.24,2118.78 1999.68,2137.84 2012.63,2150 L2046.83,2150 C2048.08,2143.57 2044.43,2137.04 2038.05,2134.87" id="Fill-149" fill="#1B1A19"></path>
                <path d="M1917.25,531.555 C1911.4,527.096 1903.03,528.23 1898.57,534.089 C1891.89,542.863 1879.32,544.568 1870.55,537.89 C1850.08,522.307 1820.74,526.285 1805.16,546.758 C1800.7,552.616 1801.83,560.981 1807.69,565.44 C1813.55,569.9 1821.92,568.765 1826.38,562.907 C1833.05,554.132 1845.63,552.428 1854.4,559.106 C1874.87,574.689 1904.21,570.71 1919.79,550.238 C1924.25,544.379 1923.11,536.015 1917.25,531.555" id="Fill-150" fill="#1B1A19"></path>
                <path d="M1576.69,2114.87 C1569.37,2115.6 1564.01,2122.12 1564.74,2129.45 C1565.46,2136.78 1571.99,2142.13 1579.32,2141.41 C1586.82,2140.66 1593.77,2144.19 1597.77,2150 L1626.55,2150 C1621.05,2127.92 1600,2112.57 1576.69,2114.87" id="Fill-151" fill="#1B1A19"></path>
                <path d="M1473.57,376.262 C1466.25,375.428 1459.65,380.682 1458.81,387.997 C1457.56,398.953 1447.63,406.849 1436.68,405.6 C1411.11,402.684 1387.94,421.109 1385.03,446.672 C1384.2,453.987 1389.45,460.594 1396.76,461.428 C1404.08,462.263 1410.69,457.008 1411.52,449.693 C1412.77,438.737 1422.7,430.841 1433.66,432.091 C1459.22,435.006 1482.39,416.581 1485.3,391.018 C1486.14,383.704 1480.88,377.096 1473.57,376.262" id="Fill-152" fill="#1B1A19"></path>
                <path d="M1812.42,24.908 C1814.58,31.946 1822.04,35.903 1829.08,33.743 C1836.12,31.584 1840.07,24.126 1837.92,17.088 C1836.07,11.071 1837.22,4.844 1840.5,0 L1811.76,0 C1809.77,7.951 1809.85,16.519 1812.42,24.908" id="Fill-153" fill="#1B1A19"></path>
                <path d="M404.057,1742.11 C393.16,1743.79 382.923,1736.3 381.236,1725.4 C377.301,1699.98 353.414,1682.49 327.988,1686.43 C320.712,1687.55 315.726,1694.37 316.853,1701.64 C317.979,1708.92 324.791,1713.9 332.066,1712.78 C342.964,1711.09 353.201,1718.58 354.887,1729.48 C358.822,1754.91 382.71,1772.39 408.135,1768.46 C415.411,1767.33 420.397,1760.52 419.271,1753.24 C418.145,1745.96 411.333,1740.98 404.057,1742.11" id="Fill-154" fill="#1B1A19"></path>
                <path d="M952.638,1973.27 C941.632,1973.96 932.117,1965.57 931.425,1954.56 C929.811,1928.89 907.607,1909.31 881.929,1910.92 C874.582,1911.38 868.999,1917.72 869.46,1925.06 C869.922,1932.41 876.254,1938 883.602,1937.53 C894.607,1936.84 904.123,1945.23 904.814,1956.24 C906.429,1981.91 928.633,2001.49 954.311,1999.88 C961.658,1999.42 967.241,1993.08 966.779,1985.74 C966.317,1978.39 959.985,1972.81 952.638,1973.27" id="Fill-155" fill="#1B1A19"></path>
                <path d="M369.71,1172.34 C362.527,1173.96 358.015,1181.09 359.632,1188.27 C362.054,1199.03 355.272,1209.75 344.515,1212.18 C319.414,1217.83 303.591,1242.84 309.241,1267.94 C310.858,1275.13 317.992,1279.64 325.175,1278.02 C332.358,1276.41 336.87,1269.27 335.253,1262.09 C332.832,1251.33 339.613,1240.61 350.371,1238.19 C375.471,1232.54 391.295,1207.52 385.644,1182.42 C384.027,1175.24 376.893,1170.72 369.71,1172.34" id="Fill-156" fill="#1B1A19"></path>
                <path d="M136.909,677.529 C129.72,675.939 122.604,680.479 121.014,687.667 C118.633,698.435 107.938,705.257 97.171,702.876 C72.049,697.322 47.092,713.241 41.537,738.363 C39.948,745.552 44.487,752.668 51.676,754.258 C58.866,755.848 65.982,751.308 67.572,744.119 C69.952,733.352 80.648,726.53 91.415,728.911 C116.537,734.465 141.494,718.545 147.048,693.424 C148.638,686.235 144.099,679.118 136.909,677.529" id="Fill-157" fill="#1B1A19"></path>
                <path d="M486.582,1496.78 C477.809,1503.46 465.237,1501.76 458.557,1492.99 C442.967,1472.52 413.632,1468.55 393.165,1484.14 C387.308,1488.6 386.175,1496.97 390.636,1502.83 C395.098,1508.68 403.463,1509.81 409.32,1505.35 C418.092,1498.67 430.664,1500.37 437.345,1509.15 C452.934,1529.61 482.269,1533.58 502.737,1517.99 C508.594,1513.53 509.727,1505.17 505.265,1499.31 C500.804,1493.45 492.438,1492.32 486.582,1496.78" id="Fill-158" fill="#1B1A19"></path>
                <path d="M1486.13,803.034 C1478.32,810.826 1465.64,810.816 1457.85,803.013 C1439.67,784.806 1410.06,784.784 1391.86,802.962 C1386.65,808.164 1386.64,816.605 1391.84,821.816 C1397.05,827.026 1405.49,827.033 1410.7,821.831 C1418.5,814.039 1431.19,814.049 1438.98,821.852 C1457.16,840.059 1486.76,840.082 1504.97,821.903 C1510.18,816.701 1510.18,808.259 1504.98,803.049 C1499.78,797.838 1491.34,797.833 1486.13,803.034" id="Fill-159" fill="#1B1A19"></path>
                <path d="M476.509,823.771 C467.986,830.769 455.361,829.527 448.364,821.004 C432.039,801.119 402.579,798.223 382.693,814.548 C377.003,819.22 376.176,827.621 380.849,833.312 C385.521,839.002 393.921,839.828 399.612,835.156 C408.134,828.159 420.76,829.401 427.756,837.923 C444.082,857.809 473.542,860.705 493.428,844.379 C499.118,839.708 499.944,831.307 495.272,825.616 C490.601,819.925 482.2,819.1 476.509,823.771" id="Fill-160" fill="#1B1A19"></path>
                <path d="M415.237,2021.4 C408.46,2024.28 405.3,2032.11 408.179,2038.89 C412.49,2049.04 407.741,2060.8 397.592,2065.11 C373.912,2075.17 362.83,2102.62 372.889,2126.3 C375.768,2133.08 383.596,2136.24 390.373,2133.36 C397.149,2130.48 400.309,2122.65 397.43,2115.88 C393.119,2105.73 397.868,2093.96 408.017,2089.65 C431.698,2079.59 442.779,2052.14 432.72,2028.46 C429.841,2021.69 422.014,2018.53 415.237,2021.4" id="Fill-161" fill="#1B1A19"></path>
                <path d="M323.035,969.052 C314.953,961.55 314.482,948.872 321.983,940.791 C339.487,921.934 338.387,892.352 319.53,874.849 C314.134,869.84 305.699,870.153 300.689,875.549 C295.68,880.946 295.995,889.381 301.391,894.39 C309.472,901.892 309.944,914.57 302.442,922.651 C284.938,941.508 286.039,971.09 304.896,988.593 C312.978,996.096 313.449,1008.77 305.947,1016.85 C288.443,1035.71 289.544,1065.29 308.4,1082.8 C313.796,1087.81 322.232,1087.49 327.241,1082.1 C332.25,1076.7 331.936,1068.26 326.54,1063.26 C318.458,1055.75 317.987,1043.08 325.488,1034.99 C342.993,1016.14 341.892,986.556 323.035,969.052" id="Fill-162" fill="#1B1A19"></path>
                <path d="M1216.05,162.174 C1208.74,161.267 1202.09,166.456 1201.18,173.762 C1199.82,184.705 1189.81,192.502 1178.87,191.144 C1153.34,187.975 1129.99,206.17 1126.82,231.702 C1125.46,242.646 1115.45,250.442 1104.51,249.084 C1078.98,245.916 1055.63,264.11 1052.46,289.643 C1051.55,296.949 1056.74,303.608 1064.05,304.515 C1071.35,305.421 1078.01,300.233 1078.92,292.927 C1080.28,281.983 1090.28,274.187 1101.23,275.544 C1126.76,278.713 1150.11,260.519 1153.28,234.986 C1154.64,224.043 1164.64,216.246 1175.59,217.604 C1201.12,220.773 1224.47,202.578 1227.64,177.046 C1228.55,169.739 1223.36,163.081 1216.05,162.174" id="Fill-163" fill="#1B1A19"></path>
                <path d="M990.765,1662.25 C980.884,1667.14 968.864,1663.09 963.969,1653.21 C952.549,1630.15 924.5,1620.69 901.446,1632.11 C891.564,1637 879.544,1632.94 874.65,1623.06 C863.229,1600.01 835.181,1590.54 812.126,1601.96 C805.529,1605.23 802.83,1613.23 806.098,1619.83 C809.366,1626.42 817.364,1629.12 823.961,1625.86 C833.843,1620.96 845.863,1625.02 850.757,1634.9 C862.178,1657.95 890.226,1667.42 913.281,1656 C923.162,1651.1 935.182,1655.16 940.077,1665.04 C951.497,1688.1 979.545,1697.56 1002.6,1686.14 C1009.2,1682.87 1011.9,1674.88 1008.63,1668.28 C1005.36,1661.68 997.362,1658.98 990.765,1662.25" id="Fill-164" fill="#1B1A19"></path>
                <path d="M1671.54,804.079 C1660.52,804.23 1651.42,795.382 1651.27,784.357 C1650.92,758.63 1629.71,737.987 1603.98,738.339 C1592.95,738.489 1583.86,729.642 1583.71,718.617 C1583.36,692.89 1562.14,672.247 1536.42,672.598 C1529.05,672.699 1523.17,678.749 1523.26874,686.111 C1523.37,693.473 1529.42,699.36 1536.78,699.259 C1547.81,699.108 1556.9,707.956 1557.05,718.981 C1557.4,744.708 1578.62,765.351 1604.34,765 C1615.37,764.849 1624.46,773.696 1624.61,784.721 C1624.96,810.448 1646.18,831.091 1671.91,830.74 C1679.27,830.639 1685.16,824.589 1685.05152,817.227 C1684.95,809.865 1678.9,803.979 1671.54,804.079" id="Fill-165" fill="#1B1A19"></path>
                <path d="M1219.67,1009.5 C1211,1002.69 1209.49,990.092 1216.3,981.423 C1232.2,961.194 1228.68,931.802 1208.45,915.904 C1202.66,911.354 1194.28,912.358 1189.73,918.147 C1185.18,923.937 1186.19,932.318 1191.97,936.867 C1200.64,943.682 1202.15,956.278 1195.34,964.947 C1179.44,985.176 1182.96,1014.57 1203.19,1030.47 C1211.86,1037.28 1213.37,1049.88 1206.56,1058.55 C1190.66,1078.77 1194.18,1108.17 1214.41,1124.06 C1220.2,1128.61 1228.58,1127.61 1233.13,1121.82 C1237.68,1116.03 1236.67,1107.65 1230.89,1103.1 C1222.22,1096.29 1220.71,1083.69 1227.52,1075.02 C1243.42,1054.79 1239.9,1025.4 1219.67,1009.5" id="Fill-166" fill="#1B1A19"></path>
                <path d="M727.178,265.287 C717.529,259.948 714.024,247.755 719.363,238.107 C731.82,215.596 723.639,187.146 701.128,174.689 C691.479,169.35 687.974,157.158 693.313,147.509 C705.77,124.998 697.59,96.548 675.078,84.091 C668.636,80.526 660.523,82.858 656.958,89.301 C653.394,95.743 655.727,103.856 662.168,107.42 C671.817,112.76 675.322,124.952 669.983,134.6 C657.526,157.112 665.707,185.562 688.218,198.019 C697.867,203.357 701.372,215.55 696.033,225.198 C683.576,247.709 691.756,276.159 714.268,288.616 C720.71,292.181 728.823,289.849 732.388,283.406 C735.953,276.964 733.619,268.851 727.178,265.287" id="Fill-167" fill="#1B1A19"></path>
                <path d="M229.092,1025.61 C218.211,1027.4 207.903,1020.01 206.112,1009.13 C201.933,983.742 177.878,966.488 152.492,970.667 C141.611,972.458 131.303,965.063 129.512,954.183 C125.333,928.796 101.279,911.542 75.892,915.721 C68.628,916.917 63.707,923.775 64.903,931.041 C66.099,938.306 72.958,943.226 80.223,942.03 C91.104,940.239 101.412,947.633 103.203,958.514 C107.382,983.901 131.436,1001.15 156.823,996.976 C167.704,995.185 178.012,1002.58 179.803,1013.46 C183.981,1038.85 208.036,1056.1 233.422,1051.92 C240.687,1050.73 245.607,1043.87 244.412,1036.6 C243.216,1029.34 236.356,1024.42 229.092,1025.61" id="Fill-168" fill="#1B1A19"></path>
                <path d="M1117.77,1120.43 C1110.49,1119.34 1103.7,1124.36 1102.61,1131.64 C1100.98,1142.55 1090.78,1150.09 1079.88,1148.46 C1054.43,1144.65 1030.63,1162.26 1026.82,1187.7 C1025.19,1198.61 1014.99,1206.15 1004.09,1204.52 C978.641,1200.71 954.841,1218.31 951.032,1243.76 C949.942,1251.04 954.962,1257.83 962.244,1258.92 C969.525,1260.01 976.312,1254.99 977.401,1247.7 C979.034,1236.8 989.234,1229.25 1000.14,1230.89 C1025.58,1234.7 1049.38,1217.09 1053.19,1191.65 C1054.82,1180.74 1065.02,1173.2 1075.93,1174.83 C1101.38,1178.64 1125.17,1161.04 1128.98,1135.59 C1130.07,1128.31 1125.05,1121.52 1117.77,1120.43" id="Fill-169" fill="#1B1A19"></path>
                <path d="M1969.74,1234.93 C1961.16,1241.87 1948.55,1240.54 1941.61,1231.96 C1925.43,1211.96 1895.99,1208.85 1875.99,1225.03 C1867.42,1231.97 1854.8,1230.64 1847.87,1222.06 C1831.68,1202.06 1802.25,1198.95 1782.24,1215.13 C1776.52,1219.76 1775.63,1228.16 1780.26,1233.88 C1784.89,1239.61 1793.29,1240.49 1799.01,1235.86 C1807.58,1228.93 1820.2,1230.26 1827.14,1238.83 C1843.32,1258.83 1872.76,1261.94 1892.76,1245.76 C1901.33,1238.83 1913.95,1240.16 1920.88,1248.73 C1937.06,1268.74 1966.5,1271.85 1986.51,1255.67 C1992.23,1251.03 1993.12,1242.64 1988.49,1236.92 C1983.86,1231.19 1975.46,1230.3 1969.74,1234.93" id="Fill-170" fill="#1B1A19"></path>
                <path d="M240.182,2114.38 C229.188,2115.22 219.554,2106.97 218.706,2095.98 C216.726,2070.32 194.245,2051.06 168.593,2053.04 C161.252,2053.61 155.76,2060.02 156.327,2067.36 C156.893,2074.7 163.304,2080.19 170.645,2079.63 C181.639,2078.78 191.273,2087.03 192.121,2098.03 C194.101,2123.68 216.582,2142.94 242.233,2140.96 C249.771,2140.38 256.667,2144.08 260.533,2150 L289.141,2150 C283.894,2128.1 263.332,2112.59 240.182,2114.38" id="Fill-171" fill="#1B1A19"></path>
                <path d="M812.613,1373.47 C801.93,1376.21 791.014,1369.75 788.278,1359.06 C781.893,1334.14 756.42,1319.06 731.497,1325.44 C720.814,1328.18 709.899,1321.72 707.162,1311.04 C700.776,1286.11 675.304,1271.03 650.381,1277.42 C643.249,1279.24 638.948,1286.51 640.775,1293.64 C642.603,1300.77 649.866,1305.07 656.998,1303.24 C667.681,1300.51 678.597,1306.97 681.333,1317.65 C687.718,1342.58 713.191,1357.66 738.114,1351.27 C748.796,1348.54 759.712,1355 762.449,1365.68 C768.834,1390.61 794.307,1405.69 819.23,1399.3 C826.362,1397.48 830.663,1390.21 828.836,1383.08 C827.008,1375.95 819.745,1371.65 812.613,1373.47" id="Fill-172" fill="#1B1A19"></path>
                <path d="M1194.34,1466.35 C1187.1,1467.69 1182.32,1474.65 1183.66,1481.88 C1185.67,1492.73 1178.48,1503.18 1167.63,1505.19 C1142.34,1509.87 1125.56,1534.27 1130.25,1559.56 C1132.26,1570.41 1125.07,1580.86 1114.23,1582.87 C1088.93,1587.55 1072.16,1611.94 1076.84,1637.24 C1078.18,1644.48 1085.14,1649.27 1092.38,1647.92 C1099.62,1646.58 1104.4,1639.63 1103.06,1632.39 C1101.05,1621.55 1108.24,1611.09 1119.08,1609.08 C1144.38,1604.4 1161.15,1580.01 1156.47,1554.71 C1154.46,1543.87 1161.65,1533.41 1172.49,1531.41 C1197.79,1526.72 1214.56,1502.33 1209.88,1477.03 C1208.54,1469.79 1201.58,1465.01 1194.34,1466.35" id="Fill-173" fill="#1B1A19"></path>
                <path d="M951.225,278.384 C942.664,271.434 941.354,258.815 948.304,250.255 C964.521,230.28 961.463,200.836 941.489,184.62 C935.773,179.979 927.377,180.851 922.736,186.567 C918.095,192.283 918.968,200.679 924.683,205.32 C933.244,212.27 934.554,224.889 927.604,233.449 C911.387,253.424 914.445,282.868 934.419,299.084 C942.98,306.035 944.29,318.653 937.34,327.213 C921.123,347.188 924.181,376.632 944.155,392.849 C949.871,397.489 958.267,396.618 962.908,390.901 C967.549,385.185 966.677,376.789 960.961,372.149 C952.4,365.198 951.09,352.58 958.04,344.02 C974.257,324.045 971.199,294.601 951.225,278.384" id="Fill-174" fill="#1B1A19"></path>
                <path d="M683.572,1159.52 C680.268,1158.34 676.549,1158.54 673.382,1160.04 C670.215,1161.55 667.72,1164.31 666.545,1167.62 C665.371,1170.92 665.563,1174.64 667.07,1177.81 C668.576,1180.97 671.339,1183.47 674.643,1184.64 C677.947,1185.82 681.665,1185.63 684.832,1184.12 C687.999,1182.61 690.495,1179.85 691.669,1176.54 C692.843,1173.24 692.651,1169.52 691.145,1166.36 C689.639,1163.19 686.875,1160.69 683.572,1159.52" id="Fill-175" fill="#1B1A19"></path>
                <path d="M887.5,1294.19 C884.853,1291.89 881.322,1290.71 877.823,1290.96 C874.325,1291.21 870.992,1292.87 868.692,1295.51 C866.393,1298.16 865.214,1301.69 865.46,1305.19 C865.705,1308.69 867.366,1312.02 870.013,1314.32 C872.659,1316.62 876.191,1317.8 879.69,1317.55 C883.188,1317.31 886.521,1315.65 888.82,1313 C891.12,1310.35 892.298,1306.82 892.053,1303.32 C891.808,1299.82 890.146,1296.49 887.5,1294.19" id="Fill-176" fill="#1B1A19"></path>
                <path d="M770.55,1492.35 C767.75,1490.24 764.145,1489.31 760.672,1489.8 C757.199,1490.28 753.99,1492.17 751.879,1494.97 C749.768,1497.77 748.836,1501.38 749.323,1504.85 C749.811,1508.32 751.699,1511.53 754.498,1513.64 C757.298,1515.75 760.903,1516.69 764.375,1516.2 C767.848,1515.71 771.058,1513.82 773.169,1511.02 C775.28,1508.22 776.211,1504.62 775.724,1501.15 C775.237,1497.67 773.35,1494.46 770.55,1492.35" id="Fill-177" fill="#1B1A19"></path>
                <path d="M829.581,220.549 C826.479,218.912 822.771,218.567 819.422,219.604 C816.073,220.64 813.208,223.018 811.572,226.12 C809.937,229.223 809.59,232.93 810.626,236.279 C811.663,239.629 814.042,242.493 817.144,244.128 C820.246,245.765 823.953,246.111 827.303,245.075 C830.652,244.039 833.517,241.659 835.152,238.557 C836.789,235.456 837.135,231.749 836.099,228.399 C835.063,225.049 832.683,222.185 829.581,220.549" id="Fill-178" fill="#1B1A19"></path>
                <path d="M2108.34,817.644 C2105.98,817.73 2103.69,819.24 2102.06,821.78 C2100.43,824.32 2099.53,827.793 2099.59,831.299 C2099.65,834.804 2100.66,838.207 2102.37,840.625 C2104.08,843.043 2106.42,844.385 2108.78,844.299 C2111.13,844.213 2113.42,842.703 2115.05,840.163 C2116.68,837.623 2117.58,834.149 2117.52,830.645 C2117.47,827.139 2116.45,823.736 2114.74,821.317 C2113.03,818.899 2110.69,817.558 2108.34,817.644" id="Fill-179" fill="#1B1A19"></path>
                <path d="M476.875,418.992 C473.39,418.594 469.81,419.618 467.065,421.8 C464.321,423.982 462.517,427.239 462.119,430.723 C461.721,434.208 462.745,437.788 464.927,440.532 C467.109,443.276 470.366,445.081 473.851,445.479 C477.334,445.876 480.914,444.853 483.659,442.671 C486.403,440.489 488.208,437.232 488.606,433.747 C489.004,430.263 487.979,426.683 485.797,423.939 C483.616,421.194 480.359,419.389 476.875,418.992" id="Fill-180" fill="#1B1A19"></path>
                <path d="M2080.91,387.105 C2077.55,386.074 2073.85,386.425 2070.75,388.067 C2067.65,389.708 2065.27,392.577 2064.24,395.928 C2063.21,399.279 2063.56,402.986 2065.21,406.084 C2066.85,409.184 2069.71,411.559 2073.07,412.59 C2076.42,413.621 2080.12,413.268 2083.22,411.626 C2086.32,409.986 2088.7,407.118 2089.73,403.767 C2090.76,400.416 2090.41,396.708 2088.77,393.609 C2087.13,390.51 2084.26,388.136 2080.91,387.105" id="Fill-181" fill="#1B1A19"></path>
                <path d="M541.893,2016.31 C538.837,2014.59 535.141,2014.14 531.764,2015.08 C528.387,2016.03 525.458,2018.33 523.738,2021.38 C522.018,2024.44 521.57,2028.14 522.514,2031.51 C523.458,2034.89 525.757,2037.82 528.813,2039.54 C531.869,2041.26 535.566,2041.71 538.942,2040.76 C542.319,2039.82 545.248,2037.52 546.968,2034.46 C548.688,2031.41 549.136,2027.71 548.192,2024.33 C547.248,2020.96 544.949,2018.03 541.893,2016.31" id="Fill-182" fill="#1B1A19"></path>
                <path d="M1868.09,1079.18 C1864.6,1078.92 1861.06,1080.08 1858.4,1082.36 C1855.74,1084.64 1854.06,1087.97 1853.79,1091.46 C1853.52,1094.96 1854.68,1098.5 1856.97,1101.16 C1859.25,1103.82 1862.57,1105.5 1866.07,1105.77 C1869.57,1106.03 1873.11,1104.87 1875.77,1102.59 C1878.43,1100.3 1880.11,1096.98 1880.37,1093.49 C1880.64,1089.99 1879.48,1086.45 1877.2,1083.79 C1874.91,1081.13 1871.59,1079.45 1868.09,1079.18" id="Fill-183" fill="#1B1A19"></path>
                <path d="M765.006,1065.41 C761.514,1065.09 757.955,1066.18 755.255,1068.42 C752.555,1070.65 750.815,1073.95 750.488,1077.44 C750.16,1080.93 751.255,1084.49 753.492,1087.19 C755.728,1089.89 759.021,1091.63 762.513,1091.96 C766.003,1092.28 769.563,1091.19 772.263,1088.95 C774.963,1086.72 776.702,1083.42 777.03,1079.93 C777.359,1076.44 776.263,1072.88 774.026,1070.18 C771.79,1067.48 768.498,1065.74 765.006,1065.41" id="Fill-184" fill="#1B1A19"></path>
                <path d="M1582.44,1530.62 C1579.15,1529.41 1575.43,1529.56 1572.24,1531.03 C1569.06,1532.5 1566.53,1535.24 1565.32,1538.53 C1564.11,1541.82 1564.26,1545.54 1565.74,1548.72 C1567.21,1551.91 1569.94,1554.43 1573.23,1555.64 C1576.52,1556.86 1580.24,1556.7 1583.43,1555.23 C1586.61,1553.76 1589.14,1551.03 1590.35,1547.74 C1591.56,1544.44 1591.41,1540.72 1589.93,1537.54 C1588.46,1534.36 1585.73,1531.83 1582.44,1530.62" id="Fill-185" fill="#1B1A19"></path>
                <path d="M27.871,444.424 C24.37,444.227 20.856,445.458 18.24,447.793 C15.624,450.129 14.007,453.483 13.81,456.984 C13.612,460.485 14.842,463.999 17.179,466.614 C19.515,469.23 22.869,470.848 26.37,471.045 C29.87,471.242 33.385,470.012 35.999,467.676 C38.615,465.34 40.233,461.986 40.431,458.485 C40.628,454.985 39.397,451.47 37.061,448.855 C34.725,446.24 31.372,444.622 27.871,444.424" id="Fill-186" fill="#1B1A19"></path>
                <path d="M919.672,1775.52 C917.069,1773.17 913.561,1771.92 910.059,1772.1 C906.556,1772.28 903.192,1773.88 900.843,1776.48 C898.493,1779.08 897.247,1782.59 897.426,1786.1 C897.604,1789.6 899.201,1792.96 901.804,1795.31 C904.406,1797.66 907.915,1798.91 911.417,1798.73 C914.92,1798.55 918.283,1796.95 920.633,1794.35 C922.982,1791.75 924.229,1788.24 924.05,1784.74 C923.871,1781.23 922.274,1777.87 919.672,1775.52" id="Fill-187" fill="#1B1A19"></path>
                <path d="M237.274,1610.77 C233.849,1610.02 230.184,1610.68 227.231,1612.57 C224.277,1614.46 222.147,1617.52 221.396,1620.94 C220.645,1624.37 221.302,1628.03 223.193,1630.98 C225.084,1633.94 228.138,1636.07 231.563,1636.82 C234.987,1637.57 238.653,1636.91 241.606,1635.02 C244.56,1633.13 246.689,1630.08 247.44,1626.65 C248.191,1623.23 247.536,1619.56 245.644,1616.61 C243.753,1613.65 240.698,1611.52 237.274,1610.77" id="Fill-188" fill="#1B1A19"></path>
                <path d="M435.741,1361.06 C432.524,1359.66 428.801,1359.6 425.541,1360.89 C422.279,1362.18 419.603,1364.77 418.208,1367.99 C416.815,1371.21 416.757,1374.93 418.047,1378.19 C419.336,1381.45 421.925,1384.13 425.142,1385.52 C428.359,1386.92 432.083,1386.97 435.344,1385.68 C438.605,1384.39 441.281,1381.81 442.675,1378.59 C444.068,1375.37 444.127,1371.65 442.837,1368.39 C441.547,1365.13 438.958,1362.45 435.741,1361.06" id="Fill-189" fill="#1B1A19"></path>
                <path d="M182.013,91.413 C178.509,91.563 175.134,93.135 172.764,95.719 C170.394,98.303 169.12,101.801 169.271,105.305 C169.423,108.809 170.994,112.185 173.578,114.555 C176.162,116.925 179.661,118.198 183.164,118.046 C186.668,117.895 190.044,116.325 192.414,113.741 C194.784,111.157 196.057,107.657 195.905,104.154 C195.755,100.651 194.184,97.274 191.6,94.905 C189.016,92.535 185.517,91.261 182.013,91.413" id="Fill-190" fill="#1B1A19"></path>
                <path d="M1096.21,1015.13 C1093.05,1013.61 1089.34,1013.39 1086.03,1014.55 C1082.71,1015.7 1079.93,1018.18 1078.41,1021.33 C1076.88,1024.49 1076.67,1028.21 1077.82,1031.52 C1078.97,1034.83 1081.45,1037.61 1084.61,1039.14 C1087.76,1040.66 1091.48,1040.88 1094.79,1039.72 C1098.1,1038.57 1100.88,1036.09 1102.41,1032.94 C1103.94,1029.78 1104.15,1026.06 1103,1022.75 C1101.84,1019.44 1099.37,1016.66 1096.21,1015.13" id="Fill-191" fill="#1B1A19"></path>
                <path d="M1907.72,642.387 C1904.95,640.234 1901.36,639.248 1897.88,639.684 C1894.4,640.12 1891.16,641.962 1889.01,644.732 C1886.86,647.501 1885.87,651.092 1886.31,654.57 C1886.75,658.049 1888.59,661.285 1891.36,663.436 C1894.13,665.588 1897.72,666.576 1901.2,666.14 C1904.67,665.704 1907.91,663.86 1910.06,661.091 C1912.21,658.323 1913.2,654.732 1912.77,651.253 C1912.33,647.775 1910.49,644.539 1907.72,642.387" id="Fill-192" fill="#1B1A19"></path>
                <path d="M2066.18,1958 C2063.36,1955.92 2059.75,1955.02 2056.28,1955.55 C2052.81,1956.07 2049.62,1957.99 2047.54,1960.82 C2045.46,1963.64 2044.56,1967.25 2045.09,1970.72 C2045.61,1974.19 2047.53,1977.37 2050.36,1979.46 C2053.18,1981.54 2056.79,1982.43 2060.26,1981.91 C2063.73,1981.39 2066.91,1979.46 2069,1976.64 C2071.08,1973.82 2071.97,1970.21 2071.45,1966.74 C2070.93,1963.27 2069,1960.08 2066.18,1958" id="Fill-193" fill="#1B1A19"></path>
                <path d="M430.153,149.694 C426.829,148.577 423.114,148.832 419.975,150.393 C416.835,151.954 414.391,154.762 413.274,158.087 C412.158,161.412 412.413,165.127 413.974,168.266 C415.535,171.405 418.343,173.85 421.667,174.966 C424.992,176.083 428.707,175.829 431.847,174.268 C434.986,172.707 437.431,169.897 438.546,166.572 C439.663,163.249 439.409,159.534 437.848,156.395 C436.287,153.255 433.478,150.81 430.153,149.694" id="Fill-194" fill="#1B1A19"></path>
                <path d="M1652.46,983.725 C1649.64,981.64 1646.03,980.739 1642.56,981.259 C1639.09,981.779 1635.9,983.701 1633.82,986.521 C1631.74,989.34 1630.83,992.954 1631.35,996.421 C1631.88,999.888 1633.8,1003.08 1636.62,1005.16 C1639.44,1007.25 1643.05,1008.15 1646.52,1007.63 C1649.98,1007.11 1653.17,1005.19 1655.26,1002.37 C1657.34,999.547 1658.24,995.934 1657.72,992.466 C1657.2,988.999 1655.28,985.809 1652.46,983.725" id="Fill-195" fill="#1B1A19"></path>
                <path d="M1477.87,708.097 C1475.05,706.012 1471.43,705.111 1467.97,705.631 C1464.5,706.151 1461.31,708.072 1459.23,710.893 C1457.14,713.712 1456.24,717.325 1456.76,720.792 C1457.28,724.259 1459.2,727.449 1462.02,729.534 C1464.84,731.62 1468.45,732.519 1471.92,731.999 C1475.39,731.479 1478.58,729.559 1480.66,726.739 C1482.75,723.918 1483.65,720.305 1483.13,716.838 C1482.61,713.371 1480.69,710.18 1477.87,708.097" id="Fill-196" fill="#1B1A19"></path>
                <path d="M1156.1,1402.57 C1153.28,1400.48 1149.67,1399.58 1146.2,1400.1 C1142.74,1400.62 1139.55,1402.54 1137.46,1405.36 C1135.38,1408.18 1134.48,1411.79 1135,1415.26 C1135.52,1418.73 1137.44,1421.92 1140.26,1424 C1143.08,1426.09 1146.69,1426.99 1150.16,1426.47 C1153.63,1425.95 1156.82,1424.03 1158.9,1421.21 C1160.98,1418.39 1161.88,1414.78 1161.37,1411.31 C1160.84,1407.84 1158.92,1404.65 1156.1,1402.57" id="Fill-197" fill="#1B1A19"></path>
                <path d="M389.947,65.13 C386.625,64.004 382.91,64.247 379.766,65.798 C376.622,67.35 374.169,70.152 373.043,73.474 C371.917,76.794 372.159,80.51 373.711,83.654 C375.263,86.797 378.064,89.25 381.386,90.377 C384.707,91.504 388.422,91.26 391.566,89.708 C394.71,88.156 397.164,85.356 398.29,82.034 C399.416,78.713 399.172,74.997 397.621,71.853 C396.069,68.709 393.268,66.256 389.947,65.13" id="Fill-198" fill="#1B1A19"></path>
                <path d="M59.211,1058.26 C55.964,1056.93 52.24,1056.96 49.009,1058.32 C45.778,1059.68 43.161,1062.33 41.838,1065.57 C40.516,1068.82 40.536,1072.55 41.897,1075.78 C43.258,1079.01 45.907,1081.63 49.155,1082.95 C52.403,1084.27 56.126,1084.25 59.358,1082.89 C62.589,1081.53 65.205,1078.88 66.528,1075.63 C67.851,1072.38 67.831,1068.66 66.47,1065.43 C65.109,1062.2 62.46,1059.58 59.211,1058.26" id="Fill-199" fill="#1B1A19"></path>
                <path d="M800.67,128.802 C797.925,126.62 794.346,125.592 790.863,125.989 C787.379,126.386 784.124,128.192 781.941,130.937 C779.758,133.682 778.729,137.261 779.126,140.744 C779.524,144.228 781.331,147.484 784.076,149.667 C786.82,151.85 790.398,152.877 793.882,152.48 C797.366,152.083 800.622,150.276 802.805,147.532 C804.988,144.788 806.015,141.208 805.618,137.725 C805.221,134.241 803.416,130.985 800.67,128.802" id="Fill-200" fill="#1B1A19"></path>
            </g>
        </g>
    </g>
</svg>