<?xml version="1.0" encoding="UTF-8"?>
<svg width="691px" height="515px" viewBox="0 0 691 515" version="1.1" xmlns="http://www.w3.org/2000/svg" xmlns:xlink="http://www.w3.org/1999/xlink">
    <!-- Generator: Sketch 60.1 (88133) - https://sketch.com -->
    <title>Group</title>
    <desc>Created with Sketch.</desc>
    <g id="Page-1" stroke="none" stroke-width="1" fill="none" fill-rule="evenodd">
        <g id="Artboard" transform="translate(-1187.000000, 0.000000)" stroke="#979797" stroke-width="2">
            <g id="Group" transform="translate(1188.315552, -9.376261)">
                <polyline id="Path" points="567.795598 101.78352 508.821281 135.92129 508.821281 347.314752 448.960543 382.481232 387.672078 347.314752 387.672078 277.146095 328.36149 242.132376 328.36149 311.555123 268.724108 277.146095 268.724108 0 387.672078 0 387.672078 135.92129 328.36149 168.534696 387.672078 206.406226 387.672078 150.437607 448.960543 186.789207 448.960543 168.534696 493.812554 143.786471 401.630082 91.8277728"></polyline>
                <polyline id="Path-2" points="652.856041 191.240616 268.724108 418.032367 268.724108 489.426983 327.15962 522.677658 327.15962 451.227955 90.2638195 309.737792 5.68434189e-14 359.392978"></polyline>
                <polyline id="Path-3" points="268.724108 348.943439 567.795598 171.683506 567.795598 29.6916813 731.122195 124.433253"></polyline>
                <line x1="313.184448" y1="233.876261" x2="30.1954298" y2="62.6601886" id="Path-5"></line>
                <line x1="448.684448" y1="217.582081" x2="448.684448" y2="496.336192" id="Path-4"></line>
            </g>
        </g>
    </g>
</svg>