<?xml version="1.0" encoding="UTF-8"?>
<svg width="1000px" height="645px" viewBox="0 0 1000 645" version="1.1" xmlns="http://www.w3.org/2000/svg" xmlns:xlink="http://www.w3.org/1999/xlink">
    <!-- Generator: Sketch 60.1 (88133) - https://sketch.com -->
    <title>Group 2</title>
    <desc>Created with Sketch.</desc>
    <g id="Page-1" stroke="none" stroke-width="1" fill="none" fill-rule="evenodd">
        <g id="Artboard" transform="translate(-860.000000, 0.000000)" stroke="#979797">
            <g id="Group-2" transform="translate(859.993276, -251.000000)">
                <g id="Group" transform="translate(178.506724, 0.000000)" stroke-width="2">
                    <polyline id="Path-2" points="741.856041 465.240616 244.913363 760.350578 357.724108 839.603589 416.15962 802.687512 416.15962 731.451338 179.263819 583.737792 89 633.392978 89 433.819055 357.724108 274.243678 357.724108 553.228205 0 336.660189 0 556.923633 57.8379677 518.967473 402.184448 731.451338 402.184448 463.31756 626.73585 336.660189 537.684448 274.243678 537.684448 433.819055"></polyline>
                    <polyline id="Path-3" points="357.724108 622.943439 656.795598 445.683506 656.795598 303.691681 820.122195 398.433253"></polyline>
                    <line x1="402.184448" y1="507.876261" x2="119.19543" y2="336.660189" id="Path-5"></line>
                    <line x1="537.684448" y1="491.582081" x2="537.684448" y2="895.376261" id="Path-4"></line>
                    <line x1="415.42802" y1="0.273350483" x2="415.42802" y2="404.06753" id="Path-4"></line>
                    <polyline id="Path-4" points="476.5 359.89709 476.5 763.691269 714.592847 622.943439 714.592847 274.243678"></polyline>
                    <line x1="537.684448" y1="491.582081" x2="537.684448" y2="895.376261" id="Path-4"></line>
                </g>
                <polyline id="Path" points="2.84217094e-14 376.017705 118.276275 303.691681 118.276275 518.967473 178.506724 478.527658 59.0724015 411.329577 59.0724015 491.582081 439.196663 265.151872"></polyline>
                <line x1="957.994981" y1="587.56358" x2="957.994981" y2="518.967473" id="Path-6"></line>
                <polyline id="Path-7" points="957.994981 587.56358 536.230832 340.915332 477.384696 375.168695 477.384696 518.967473 596.764674 448 596.764674 518.967473 536.230832 553.228205"></polyline>
                <line x1="876.820177" y1="613.049989" x2="333.789095" y2="291.328473" id="Path-8"></line>
            </g>
        </g>
    </g>
</svg>